<?xml version="1.0" encoding="utf-8"?>
<!-- Generator: Adobe Illustrator 19.2.1, SVG Export Plug-In . SVG Version: 6.00 Build 0)  -->
<svg version="1.1" xmlns="http://www.w3.org/2000/svg" xmlns:xlink="http://www.w3.org/1999/xlink" x="0px" y="0px"
	 viewBox="0 0 2063.6 2063.6" style="enable-background:new 0 0 2063.6 2063.6;" xml:space="preserve">
<style type="text/css">
	.st0{fill:#F6F5F3;}
	.st1{fill:#E0ECE4;}
	.st2{fill:none;stroke:#91908F;stroke-width:0.5;stroke-miterlimit:10;}
	.st3{fill:#E0ECE4;stroke:#91908F;stroke-width:0.5;stroke-miterlimit:10;}
	.st4{fill:#FFFFFF;stroke:#91908F;stroke-miterlimit:10;}
	.st5{fill:#E7E2DD;stroke:#91908F;stroke-width:0.3;stroke-miterlimit:10;}
	.st6{fill:#E7E2DD;}
	.st7{fill:none;}
	.st8{fill:#1D1D1B;}
	.st9{font-family:'ArialMT';}
	.st10{font-size:20px;}
	.st11{fill:#91908F;}
	.st12{fill:#FFFFFF;}
	.st13{fill:none;stroke:#91908F;stroke-width:2.0228;stroke-miterlimit:10;}
	.st14{fill:#E2804F;}
	.st15{fill:#FEF1B0;stroke:#91908F;stroke-width:0.3;stroke-miterlimit:10;}
	.st16{fill:#232120;}
	.st17{font-size:12px;}
	.st18{fill:#AA569E;stroke:#91908F;stroke-width:0.5;stroke-miterlimit:10;}
	.st19{fill:#37837E;}
	.st20{fill:#F2BF7E;stroke:#91908F;stroke-width:0.5;stroke-miterlimit:10;}
	.st21{fill:#413253;stroke:#91908F;stroke-width:0.5;stroke-miterlimit:10;}
	.st22{fill:#397E9D;stroke:#91908F;stroke-width:0.5;stroke-miterlimit:10;}
	.st23{fill:#728390;stroke:#91908F;stroke-width:0.5;stroke-miterlimit:10;}
	.st24{fill:#CBCA63;stroke:#91908F;stroke-width:0.5;stroke-miterlimit:10;}
	.st25{fill:#F29FC5;stroke:#91908F;stroke-width:0.5;stroke-miterlimit:10;}
	.st26{fill:#B297B0;stroke:#91908F;stroke-width:0.5;stroke-miterlimit:10;}
	.st27{fill:#5DBEBA;stroke:#91908F;stroke-width:0.5;stroke-miterlimit:10;}
	.st28{fill:#DC4242;stroke:#91908F;stroke-width:0.5;stroke-miterlimit:10;}
	.st29{fill:#B5D462;}
</style>
<g id="Layer_1">
	<g id="Landscape">
		<g id="GRAIN">
			<rect x="-96.6" y="-316.5" class="st0" width="2384" height="3370"/>
			<polyline class="st1" points="1356.2,1363.7 1347.4,1371 1343.7,1366.5 			"/>
			<path class="st1" d="M1343.7,1366.8l-26.5-32.3c0,0-13.8-16-32.5-11c0,0-12.3,3.2-30.3,16c-18.1,12.9-109.8,91.6-109.8,91.6
				l-47,40.7c0,0-33.9,31.2-28.6,56.6s26,28.2,33.5,28.2h29v28.4H1094c0,0-33.4,1.4-33.2,40v50.9h-7.1l-0.9,13.5l4.9,122.8
				l47.2,204.3l39.2-2.7l10.8-4.5l358.4-292.2l103.9-84.4l76.3-61.7l43.2-32l66.9-49.7l44.7-36.1l71.8-76.5L1784,1198.5
				l-108.1-139.4l-141.3-184.6l0.5-9.2l-21.4-28.3l-5.4,4.1l-49.8-60.5l-61-71.8l-81-99.4l-106.6-125.3l-19.6-22.8l-25.1-30.7
				l-6.8-8.3l-0.7-1.4l47.5-37.1l19.1-19.6l14.4-17.9l106-93.6l-25.7-28.4c0,0-22.6,14-48.5,58.4c0,0-14.2,20.1-23.4,28.1
				s-47.4,41.2-47.4,41.2s-30.8,26.9-34.2,30.5c-3.4,3.7-19.3,21.6-29.3,39.7c0,0-14.3,20.6-15.8,22.4s-1.4,5.7,6.8,13.9
				c8.2,8.2,64.1,77.1,64.1,77.1s9.9,9.1,12.6,28.4c0,0,3.4,9.2,7.9,14.6l0.9,0.3c0-0.7,0.3-1.3,0.8-1.7l30.8-25.7l45.4,54.7
				c0,0,13.5,16.6,19.9,30.4c6.3,13.8,14,32.5,18.2,39.7c5,8.4,17.2,27,23.8,33.2l0,0L1458,842.3l-7,5.8l23.2,49.3
				c0,0,8.4,14.5,15.7,23.3l14.2,17.1c0.1,0.2,0.2,0.3,0.3,0.5l1.3,1.3c0,0,9.4,14.7,15.3,29.7c5.9,14.9,12.5,41.7,9,70.4
				c0,0-2.5,18.1-3.5,19.7l-1.1,0.7c0.1,0.5,0,1-0.3,1.5l-30.3,51.8c0,0-4.5,8.3-7.9,11.3c-3.4,3.1-10.6,10.3-11.9,16.9
				s-4.4,17.1-6.2,21.1c-1.9,4-9.7,18.8-17.2,25.8s-55,46.4-55,46.4l-48.9,40.8c0,0-17,15.6-9.7,35.1c0,0.1,0.1,0.1,0.1,0.2
				c0.7,1.4,11.1,20.1,31.4,42.2l-12.9,10.8"/>
			<path class="st2" d="M1810.2,1239.8c2.2,6.7,5.2,12.7,7.2,19.7c1,1,2,2,3,3c3,14,12,24,21,37s17,25,28,37c1,1,3,2,4,3
				c5,6,9,11,14,16c8,9,14,21,8,33c-6,11-14,20-20.1,29.6"/>
			<path class="st2" d="M1755.1,1169.7c4.3,12.5,8.9,24,15.7,35.5c2.7,4.5,4.3,10.2,7.5,14.3c3.4,4.4,9.7,6.2,15,4.4"/>
			<path class="st2" d="M1611,1029.7c7.7,10.6,16.1,20.8,23.2,31.9c6.7,10.6,11.3,22.3,18.6,32.6c7.4,10.4,16.5,19.4,25.5,28.3
				c8.2,8,16.8,15.7,27.3,20.5c13.1,6.1,27.5,8.6,40.9,14.2"/>
			<path class="st2" d="M1846.6,1445.5c6.8-11,14.8-22,20.8-34c1-2,4-4,5-7c6-12,14-25,6-38c-7-13-18-24-28-36c-10-13-19-26-28-40
				c-10-17-16-35-25-52c-6-3-12,1-18,0c-5-2-8-6-11-10c-10-20-20-39-41-49c-10-5-20-9-30-14c-30-13-68-21-80-56c-3-7-9-13-13-20
				c0-1,0-3,0-4c-1-4-2-7-2-11c-2-11-6-23-14-31.4"/>
			<path class="st2" d="M1819.8,1467.4c16.6-24.9,35.6-48.9,50.6-76.9c1-4,3-8,2-12s-3-8-5-11c-25-28-47-55-62-88c-4-8-7-15-12-22
				c-5-5-13-5-20-8c-9-5-16-13-22-22c-13-16-31-23-48-33c-2-1-3,0-5-1c-19-8-38-17-58-25c-19-9-37-17-53-30c-4-4-7-7-11-11
				c-3-4-7-9-9-14c-1-2-2-5-3-7c-6-16-4-34,1.4-50.1"/>
			<path class="st2" d="M1502,1109.3c3.4,9.2,9.4,15.2,14.4,23.2c7,9,16,15,26,21c29,17,58,28,90,38c3,1,5,3,8,4s6,1,9,3
				c2,1,3,0,5,1c3,1,5,3,8,4c18,5,34,13,51,20c1,1,2,2,3,3c18,8,29,24,44,36c8,5,17,4,25,8c5,3,8,9,10,14c5,11,9,22,16,32
				c8,11,15,19,22,30c5,7,12,12,18,19c7,9,9,21,4,31c-16,29-33,54-54,80c-4,4-7,8-11,12c-1,2-2,3-3,5"/>
			<path class="st2" d="M1458.2,1179.9c32.2-4.4,63.2,7.6,95.2,14.6c20,5,39,11,59,17c4,2,8,3,12,5c37,12,72,23,106,44
				c8,5,14,11,21,17c12,8,29,4,37,17c4,8,8,17,12,25c6,10,13,18,21,27c3,4,5,9,9,13c1,1,0,3,1,4c9,13,10,29,4,43c-10,22-24,40-40,60
				c-12,16-26,30-36.2,48.3"/>
			<path class="st2" d="M1396,1237.6c18.4-6.1,34.4-15.1,51.4-22.1c10-3,21-5,32-6s21,0,32,1c17,2,33,6,50,9c20,4,38,10,58,15
				c13,4,25,8,38,12c11,4,22,7,32,12c9,5,17,8,26,13c5,3,8,6,13,9c5,4,9,10,14,14c2,2,5,3,7,4c16,5,30,13,40,26c12,17,25,31,35,49
				c1,3,2,6,3,9c4,25-15,42-27,62c-13,20-30,33-43,53c-5,9-11,17-14.8,25.9"/>
			<path class="st2" d="M1341.7,1302.1c9.7,1.4,19.7,4.4,30.7,2.4c2-1,4-2,7-3c6-3,9-8,13-13c12-17,25-32,43-40c14-6,27-10,42-12
				c13-2,25-1,37-1c16,1,32,5,48,7c18,3,35,8,53,13c25,8,50,15,74,25c8,3,15,8,23,12c2,2,4,3,7,5c7,6,13,12,22,16c12,4,23,7,33,15
				c12,10,20,21,29,34c4,6,9,10,11,17c1,4,3,7,3,11c-2,22-17,37-30,55c-6,8-13,14-20,21c-1,1-1,3-2,4c-3,3-6,6-9,9
				c-10,13-15,26-25,39c-14,16-27,31-40,46.9"/>
			<path class="st2" d="M1221.4,1371.4c21,5.1,43,6.1,64,5.1c9,0,19,1,28,0c6-1,13-1,19-2c8-1,15-3,23-6c4-2,7-3,11-5c5-3,8-6,12-9
				c12-15,20-30,30-46c10-14,20-28,35-35c14-6,27-9,42-11c9-1,18-1,27-1c12-1,23,1,35,2c8,1,16,3,24,4c38,7,72,17,107,31
				c9,3,18,7,27,12c2,1,4,4,6,5c6,3,10,8,16,11c2,1,5,2,7,3c5,2,10,2,15,4c2,1,4,2,7,3c21,10,35,28,45,48c2,5,3,10,2,15
				c-1,2-1,5-2,7c-8,15-16,28-28,40c-17,16-32,33-44,53c-34,35-68,70-94.4,111.9"/>
			<path class="st2" d="M1135.4,1445.4c6-0.9,12-3.9,18-6.9c15-9,27-20,43-27c5-2,11-4,16-6c11-4,22-6,33-8c28-4,56-4,84-7
				c26-3,48-15,70-30c4-2,5-6,8-9c14-17,23-37,40-51c1-1,3,0,4-1c7-5,15-6,23-9c2,0,3,0,5,0c69-13,132,8,196,28c3,1,5,3,8,4
				c2,1,3,0,5,1c5,2,10,5,14,9c7,5,13,9,21,12c10,3,20,4,29,7c18,7,33,22,40,41c1,4,1,8-1,12c-11,23-31,38-49,56c-5,6-8,13-13,19
				c-3,3-5,6-8,9c-23,16-38,36-58,55c-1,1-1,3-2,4c-13,13-24,27-36,40c-2,2-3,5-5,8c-20,24-38,47-55.5,71.9"/>
			<path class="st2" d="M1074.1,1520.7c19.3-10.2,39.3-17.2,58.3-27.2c20-12,34-31,51-47c22-19,47-28,75-33c24-3,46-4,70-7
				c8-1,16-3,23-5c19-8,39-16,58-25c17-8,27-25,38-41c7-8,14-15,24-18c7-2,15-3,22-4c20-2,39-2,58-1c13,1,26,3,40,5c16,3,31,7,47,11
				c14,4,27,8,40,13c7,3,13,6,20,10c3,2,6,5,9,6c25,8,65,5,70,39c1,5,0,10-2,14c-1,2-2,5-4,7s-4,4-5,7c-2,2-4,4-6,6
				c-17,12-29,25-41,40c-15,11-30,23-44,36c-3,3-6,7-9,10c-21,17-35,38-54,57c-1,1-1,3-2,4c-5,5-10,10-15,16c-10,14-20,25-30,38
				c-12,14-23,27-35,41c-5,7-10,14-16,21c-9,12-16,23-23.9,34.6"/>
			<path class="st2" d="M1127.8,1550.2c2.6-3.7,5.6-6.7,9.6-10.7c31-43,60-88,111-105c24-7,48-9,73-11c8-1,16-1,23-4
				c25-10,49-21,76-29c8-2,15-5,22-11c10-9,16-20,25-30c10-10,24-11,37-12c21-1,42-1,63,1c13,1,26,3,39,5c21,4,40,8,59,15
				c11,4,21,8,31,14c6,3,12,4,18,5c20,3,44,0,55,19c3,7-1,13-6,18c-2,1-3,3-5,5c-13,11-29,18-39,32c-41,29-79,62-114,100
				c-2,3-4,6-6,8c-8,7-14,15-21,24c-10,12-22,21-30,34c-46,46-87,97-119,155c-1,2-1,5-2.5,7.7"/>
			<polyline class="st2" points="1066.3,1628.8 1081.4,1615.9 1092.8,1606.1 1101.1,1598.9 1106.6,1593.9 1110.1,1590.5 
				1110.7,1589.9 			"/>
			<polyline class="st2" points="1063.2,1716 1070.5,1702 1078.8,1688.2 1087.6,1674.7 1096.7,1661.9 1105.7,1649.9 1114.4,1638.9 
				1122.5,1628.9 1129.4,1620.1 1135.2,1612.9 1139.8,1606.8 1143.4,1601.8 1146,1597.6 1148,1594 1149.4,1590.9 1150.3,1587.9 
				1151,1584.9 1151.6,1581.6 1152.1,1578 1152.7,1574.2 1153.7,1570 1154.8,1565.3 1156.4,1560.3 1158.6,1554.6 1161.4,1548.4 
				1165,1541.5 1169.3,1534.2 1174.1,1526.5 1179.6,1518.7 1185.6,1510.7 1192,1502.9 1198.7,1495.2 1205.8,1487.8 1213.1,1480.9 
				1220.6,1474.5 1228.4,1468.6 1236.4,1463.2 1244.6,1458.4 1253,1454.2 1261.8,1450.7 1270.7,1447.7 1279.8,1445.4 1289,1443.6 
				1298.4,1442.2 1307.6,1441.1 1316.6,1439.9 1325.4,1438.8 1333.8,1437.4 1341.7,1435.7 1349.2,1433.5 1356.1,1431 1362.7,1428.1 
				1369.1,1425.1 1375.4,1422.1 1381.8,1419.1 1388.3,1416.3 1395.1,1413.7 1402.3,1411.5 1409.8,1409.5 1417.4,1407.7 
				1425.2,1406.1 1432.9,1404.1 1440.5,1402.1 1447.7,1399.7 1454.5,1396.9 1460.9,1393.6 1466.9,1389.7 1472.9,1385.8 1479,1381.7 
				1485.4,1377.6 1492.4,1373.9 1500.1,1370.5 1508.9,1367.8 1518.7,1365.6 1529.5,1364.3 1541.2,1363.6 1553.2,1363.3 
				1565.6,1363.6 1578.1,1364.4 1590.5,1365.5 1602.5,1366.9 1614,1368.6 1624.8,1370.5 1634.9,1372.6 1644.2,1374.7 1652.8,1376.8 
				1660.3,1378.9 1666.9,1381 1672.4,1382.9 1676.9,1384.6 1680.5,1386 1683.5,1387.3 1686.1,1388.5 1688.6,1389.5 1691.4,1390.3 
				1694.6,1391.2 1698.5,1391.9 1703.4,1392.5 1708.9,1393 1714.9,1393.6 1721.2,1394.1 1727.4,1394.5 1733.4,1395 1738.9,1395.5 
				1743.6,1396 1747.4,1396.6 1750.3,1397.3 1752.5,1397.9 1754,1398.6 1755,1399.5 1755.7,1400.2 1756.1,1401 1756.3,1401.7 
				1756.6,1402.6 1756.8,1403.4 1756.8,1404.3 1756.6,1405.3 1756,1406.4 1754.9,1407.7 1753.4,1409.3 1751.4,1411.1 1748.8,1413.1 
				1745.5,1415.4 1742,1417.8 1738.3,1420.2 1734.5,1422.7 1730.9,1425 1727.5,1427.3 1724.5,1429.3 1722.1,1431.1 1720.2,1432.6 
				1718.5,1433.9 1717.2,1435.1 1716,1436.2 1714.9,1437.1 1713.7,1438.1 1712.4,1439.1 1710.7,1440 1708.7,1441.2 1706.3,1442.7 
				1703.3,1444.5 1699.8,1446.6 1695.5,1449.4 1690.4,1452.7 1684.6,1456.8 1677.8,1461.7 1670.2,1467.4 1662,1473.9 1653.1,1480.8 
				1643.9,1488.5 1634.3,1496.7 1624.6,1505.3 1614.8,1514.3 1605.1,1523.8 1595.5,1533.4 1586.2,1543.1 1576.9,1552.9 
				1567.9,1562.7 1559,1572.1 1550.5,1581.3 1542.4,1590 1534.4,1598.2 1526.6,1606.1 1519.1,1613.8 1511.5,1621.5 1503.8,1629.4 
				1495.9,1637.8 1487.6,1646.8 1479,1656.6 1469.8,1667.4 1459.6,1679.9 1448,1694.7 1434.8,1712.2 1419.6,1733.2 1402,1758.1 
				1381.3,1787.9 1357.7,1822.9 			"/>
			<polyline class="st2" points="1282.4,1884.3 1289.9,1874.5 1300.2,1860 1312.8,1841.8 1327.1,1820.9 1342.3,1798.3 
				1357.9,1775.2 1373.3,1752.6 1387.8,1731.5 1401.1,1712.8 1413,1696.3 1423.9,1681.9 1433.8,1669.2 1443,1657.9 1451.5,1648 
				1459.7,1638.9 1467.7,1630.3 1475.5,1622.3 1483.3,1614.6 1491.1,1607.1 1498.9,1599.6 1506.7,1592.3 1514.6,1585 1522.6,1577.5 
				1530.6,1570 1538.8,1562.1 1547,1554 1555.4,1545.7 1564.1,1537.3 1573,1528.8 1582.1,1520.3 1591.4,1511.7 1601.2,1502.9 
				1611.1,1494.3 1621.3,1485.7 1631.5,1477.5 1641.6,1469.5 1651.2,1462.1 1660.3,1455.3 1668.8,1449 1676.4,1443.6 1683,1439.1 
				1688.8,1435.2 1693.6,1432.1 1697.8,1429.6 1701.2,1427.5 1704.1,1425.9 1706.6,1424.4 1708.9,1423.1 1710.7,1421.8 
				1712.4,1420.6 1713.8,1419.4 1714.9,1418.2 1715.6,1417.2 1716,1416.1 1716,1415.3 1715.6,1414.6 1714.9,1413.9 1713.8,1413.4 
				1712.4,1412.9 1710.7,1412.5 1708.7,1412.2 1706.5,1411.7 1704.1,1411.3 1701.5,1410.9 1698.8,1410.4 1695.7,1409.8 1692,1409.1 
				1687.2,1408.1 1681.3,1407.1 1674,1405.9 1664.9,1404.5 1653.7,1402.8 1640.4,1400.9 1625.4,1398.9 1609.2,1396.8 1592.4,1395 
				1575.6,1393.5 1559.4,1392.4 1544.3,1391.9 1530.8,1392.1 1519.4,1393.1 1510,1394.8 1501.9,1397.1 1495.1,1399.7 1488.7,1402.6 
				1482.8,1405.6 1476.7,1408.5 1470.1,1411.1 1462.8,1413.3 1454.6,1415.3 1446.1,1417.1 1437.1,1418.8 1428.1,1420.5 1419,1422.3 
				1410.2,1424.3 1401.7,1426.7 1393.9,1429.5 1386.5,1432.6 1379.4,1435.8 1372.7,1439.2 1366,1442.5 1359.4,1445.7 1352.6,1448.4 
				1345.7,1450.8 1338.5,1452.7 1331,1454.3 1323.4,1455.5 1315.4,1456.7 1307.4,1457.9 1299.4,1459.5 1291.2,1461.3 1282.9,1463.7 
				1274.8,1466.7 1266.6,1470.4 1258.7,1474.6 1250.8,1479.4 1243.1,1484.5 1235.6,1490.3 1228.6,1496.3 1221.7,1502.7 
				1215.2,1509.3 1209.1,1516 1203.5,1522.8 1198.3,1529.7 1193.5,1536.4 1189.3,1542.9 1185.7,1549.2 1182.6,1555.1 1180.2,1560.5 
				1178.3,1565.5 1176.7,1570.2 1175.4,1574.7 1174.4,1578.9 1173.5,1582.8 1172.5,1586.8 1171.6,1590.7 1170.4,1594.6 
				1168.8,1598.7 1166.9,1603 1164.4,1607.8 1161.4,1612.9 1157.6,1618.7 1153.2,1625.2 1147.8,1632.5 1141.4,1640.8 1134,1650.9 
				1125.2,1663.2 1115.2,1678.6 1103.5,1697.8 1090.1,1721.4 1075,1750.3 1057.8,1785.1 			"/>
			<path class="st2" d="M1067.7,1834.2c16.7-48.7,40.7-94.7,65.7-140.7c9-10,14-22,23-33c9-12,16-24,24-37c4-7,7-14,10-21
				c4-12,7-24,12-36c16-38,48-66,85-84c6-2,11-4,17-6c14-4,27-5,41-9c17-5,31-14,46-22c2-1,3,0,5-1c11-6,23-7,35-10c22-5,44-5,65-13
				c19-7,39-11,59-10c11,1,22,1,33,2c19,2,36,4,55,6c6,1,11,2,17,4c1,4-3,7-6,9c-75,64-145,124-216,192c-10,11-20,22-30,33
				c-1,1-1,3-2,4c-15,15-25,32-37,49c-41,58-70,111-111,167c-15,19-29,36-45,54c-11,12-22,24-32.8,35.1"/>
			<path class="st2" d="M1089.6,1930.1c-5.2-28.6-9.2-58.6,0.8-86.6c17-48,40-93,64-139c1-1,2-2,3-3c2-4,4-8,6-12c10-14,19-27,28-42
				c2-4,4-9,6-13s5-8,7-12c8-17,13-35,20-53c2-5,5-9,8-14c2-2,3-4,5-7c22-25,48-45,79-57c10-3,22-4,32-8c21-9,39-22,60-29
				c16-5,32-8,48-10c11-1,22-3,33-4c5,0,9-1,14-1c10-2,20-5,30-7c23-3,46,3,69,4c1,0,4,1,4,2c-2,10-12,14-19,21c-24,20-46,39-69,59
				c-54,46-104,89-148,146c-10,13-19,26-29,40c-36,54-62,104-97,158c-9,13-18,24-28,37c-22,27-45,51-65.1,78.1"/>
			<polygon class="st2" points="1106.8,1866.7 1108.4,1881.7 1111.3,1895.1 1115,1906.8 1119.5,1917 1124.4,1925.5 1129.6,1932.4 
				1134.8,1937.5 1139.8,1940.9 1144.4,1942.6 1148.8,1942.7 1152.8,1941.5 1156.7,1939.2 1160.3,1936 1163.9,1932.1 1167.5,1927.9 
				1171.1,1923.5 1174.7,1919.1 1178.5,1914.6 1182.2,1910.3 1186.1,1906 1189.8,1901.8 1193.4,1897.7 1197,1893.7 1200.2,1889.9 
				1203.5,1886.3 1206.4,1882.7 1209.1,1879.2 1211.8,1876 1214.2,1872.6 1216.4,1869.5 1218.5,1866.3 1220.5,1863.1 1222.3,1860 
				1224.2,1856.8 1226.2,1853.1 1228.4,1849.1 1230.8,1844.3 1233.7,1838.9 1237.2,1832.5 1241.2,1825 1246,1816.3 1251.2,1806.7 
				1257,1796.4 1263,1785.6 1269.1,1774.6 1275.1,1763.7 1281,1753 1286.4,1742.9 1291.4,1733.7 1295.9,1725.1 1300,1717.3 
				1303.8,1710.1 1307.2,1703.5 1310.3,1697.4 1313.3,1691.8 1316.2,1686.4 1318.9,1681.3 1321.6,1676.5 1324.2,1671.9 
				1326.8,1667.5 1329.4,1663.3 1332,1659.3 1334.5,1655.3 1337.2,1651.5 1339.9,1647.7 1343,1643.8 1346.8,1639.3 1351.6,1634.2 
				1357.7,1628.1 1365.4,1620.6 1375.1,1611.7 1387,1600.9 1401.4,1588.3 1417.6,1574.2 1435.1,1559.1 1453.2,1543.6 1471.1,1528.2 
				1488.2,1513.5 1504,1500 1517.5,1488.4 1528.6,1479 1537,1471.6 1543.3,1465.9 1547.6,1461.9 1550.4,1459.1 1551.8,1457.2 
				1552.3,1456 1552.1,1455.1 1551.2,1454.5 1549.9,1454.1 1547.8,1453.6 1544.8,1453.3 1540.6,1453.2 1535.3,1453.3 1528.4,1453.5 
				1520.2,1453.7 1510.2,1454.2 1498.8,1454.9 1486.4,1455.7 1473.4,1456.9 1460,1458.5 1446.7,1460.4 1433.8,1462.8 1421.6,1465.7 
				1410.6,1469.2 1400.5,1473.1 1391.5,1477.2 1383.2,1481.5 1375.9,1485.6 1369.2,1489.6 1363.1,1493.2 1357.7,1496.3 
				1352.6,1498.7 1348,1500.6 1343.5,1502.2 1339.1,1503.6 1334.6,1505.1 1330.1,1506.7 1325,1508.8 1319.6,1511.4 1313.8,1514.8 
				1307.3,1518.6 1300.7,1523.1 1293.8,1527.9 1287,1532.9 1280.5,1538.1 1274.3,1543.2 1268.5,1548.3 1263.5,1553.2 1259,1557.7 
				1255.1,1562.1 1251.8,1566.1 1249,1570 1246.6,1573.6 1244.5,1576.9 1243,1580.2 1241.5,1583.2 1240.4,1586.1 1239.5,1588.9 
				1238.4,1592.2 1237.3,1595.7 1236,1599.6 1234.3,1604.2 1232.3,1609.6 1229.6,1615.9 1226.6,1622.9 1223.3,1630.3 1219.7,1638 
				1216,1645.8 1212.1,1653.4 1208.3,1660.7 1204.7,1667.3 1201.2,1673.3 1197.8,1678.9 1194.2,1684.7 1190.4,1691.2 1186,1698.7 
				1180.8,1707.9 1174.7,1719 1167.4,1732.8 1159,1749.4 1149.7,1768 1140.2,1787.5 1131,1807.2 1122.5,1826.1 1115.3,1842.9 
				1109.9,1856.8 			"/>
			<polygon class="st2" points="1130.6,1865.7 1131.6,1873.2 1133.4,1880.1 1135.8,1886.3 1138.7,1891.8 1141.9,1896.5 
				1145.3,1900.3 1148.6,1903.3 1151.8,1905.4 1154.6,1906.6 1157.2,1906.8 1159.4,1906.3 1161.5,1905.4 1163.4,1903.8 
				1165.3,1901.9 1167.1,1899.9 1168.9,1897.6 1170.7,1895.4 1172.6,1893.1 1174.6,1890.9 1176.6,1888.6 1178.6,1886.2 
				1180.8,1883.8 1182.8,1881.3 1185,1878.6 1187.3,1875.7 1189.7,1872.4 1192.6,1868.2 1195.9,1862.8 1200.1,1855.8 1205.2,1846.8 
				1211.3,1835.5 1218.7,1821.5 1227.5,1804.7 1237.3,1785.5 1248,1764.9 1259,1743.4 1270.1,1721.8 1281,1700.9 1291.1,1681.6 
				1300.3,1664.3 1308.4,1649.9 1315.4,1637.8 1322.2,1627.6 1328.6,1618.7 1335.5,1610.7 1343,1602.7 1351.7,1594.6 1361.9,1585.7 
				1373.9,1575.5 1387.2,1564.2 1401.5,1552.5 1416.1,1540.5 1430.8,1528.7 1444.6,1517.4 1457.3,1507.1 1468.3,1498.2 
				1477.3,1490.9 1484.3,1485.1 1489.4,1480.7 1493,1477.3 1495.4,1474.9 1496.6,1473.3 1497,1472.2 1496.8,1471.3 1495.9,1470.7 
				1494.7,1470.3 1492.9,1469.8 1490.6,1469.5 1487.6,1469.3 1479.7,1469.3 1474.7,1469.4 1468.9,1469.5 1462.4,1469.9 
				1455.4,1470.5 1447.9,1471.3 1440.1,1472.7 1432.1,1474.3 1423.9,1476.6 1415.8,1479.4 1407.8,1482.9 1399.9,1486.9 
				1392.5,1491.1 1385.3,1495.7 1378.6,1500 1372.3,1504.3 1366.6,1508.2 1361.6,1511.4 1357.3,1514.1 1353.6,1516.1 1350.2,1517.8 
				1347,1519.2 1343.8,1520.8 1340.3,1522.5 1336.4,1524.6 1331.9,1527.4 1326.7,1530.7 1320.8,1534.8 1314.6,1539.4 1308.1,1544.3 
				1301.6,1549.5 1295.4,1554.7 1289.4,1559.9 1284,1565.1 1279.3,1570 1275.2,1574.7 1271.6,1579.5 1268.3,1584.5 1265.2,1589.9 
				1262,1595.8 1258.8,1602.3 1255.2,1609.7 1251.4,1618 1247.2,1627 1242.8,1636.5 1238.4,1645.9 1234,1655.4 1229.8,1664.4 
				1225.8,1672.7 1222.3,1680 1219.2,1686 1216.4,1691.2 1214,1695.5 1211.8,1699.6 1209.6,1703.4 1207.3,1707.5 1204.8,1711.9 
				1201.9,1717.3 1198.8,1723.6 1195.2,1730.9 1191.1,1738.9 1186.8,1747.9 1182.1,1757.7 1177.1,1768 1171.8,1778.8 1166.3,1790.1 
				1160.4,1801.7 1154.5,1813.3 1148.9,1824.7 1143.6,1835.5 1138.9,1845.4 1135.1,1853.9 1132.2,1860.7 			"/>
			<polygon class="st2" points="1172.5,1837.9 1207.9,1758 1241,1692.9 1271.9,1640.7 1300.4,1599.6 1326.5,1568.3 1349.9,1544.8 
				1370.8,1527.5 1388.9,1514.8 1404.1,1505.1 1416.7,1497.9 1427,1492.8 1435.1,1489.6 1441.1,1487.9 1445.4,1487.4 1448,1487.8 
				1449.5,1488.7 1449.7,1489.9 1448.8,1491.6 1446.6,1493.7 1443.1,1496.3 1438.3,1499.7 1432.1,1503.9 1424.4,1509 1415.3,1515.3 
				1404.6,1522.7 1392.5,1531.5 1379.3,1541.7 1365.2,1553.5 1350.5,1567.3 1335.2,1583.1 1319.8,1600.9 1304.3,1621.2 
				1288.9,1643.7 1274,1667.9 1259.6,1693.1 1245.8,1718.5 1233,1743.5 1221.2,1767.1 1210.7,1788.9 1201.4,1807.7 1193.8,1823.4 
				1187.4,1835.9 1182.1,1845.6 1177.9,1852.9 1174.4,1858.2 1171.6,1861.8 1169,1864.1 1166.8,1865.4 1164.5,1866.1 1162.6,1866 
				1161.1,1864.9 1160.5,1862.7 1161.1,1859.1 1163.2,1853.9 1166.9,1846.9 			"/>
			<polygon class="st3" points="737,692.4 737,709.5 732,709.5 732,721 734.3,721 734.3,731.2 726.6,731.2 726.6,741.9 796.2,741.9 
				796.2,698.1 770.1,692.4 			"/>
			<polygon class="st3" points="716.7,640.7 722.1,646.2 714.9,653.5 713.1,651.7 709.6,655.1 709.6,675.6 736.8,675.6 737,692.4 
				770.1,692.4 770.1,668.1 750,668.1 719.8,637.3 			"/>
			<polygon class="st3" points="770.1,668.1 770.1,649.9 753.2,649.9 753.2,627.7 737,627.7 733.6,631.2 735.4,633 728.5,639.9 
				723,634.4 719.8,637.3 750,668.1 			"/>
			<polygon class="st3" points="770.1,649.9 770.1,643.5 783.9,643.5 783.9,651.3 794.1,651.3 794.1,648.8 807.4,648.8 807.4,649.5 
				824.3,649.5 824.3,698.1 796.2,698.1 770.1,692.4 			"/>
			<polygon class="st3" points="841.4,627.7 857.6,627.7 861,631.2 859.2,633 866.4,640.2 871.9,634.7 874.4,637.2 844.3,668.4 
				844.3,698.1 824.3,698.1 824.3,649.5 841.4,649.5 			"/>
			<polygon class="st3" points="844.3,698.1 864.3,698.1 864.3,675.8 884.8,675.8 884.8,655.1 881.5,651.5 879.6,653.4 872.4,646.1 
				877.8,640.6 874.4,637.2 844.3,668.4 			"/>
			<polygon class="st3" points="796.2,698.1 796.2,752.3 865.8,752.3 865.8,738.8 858.3,738.8 858.3,728.5 860.7,728.5 860.7,715 
				839.2,715 839.2,698.1 			"/>
			<polygon class="st3" points="796.2,752.3 796.2,804.5 865.8,804.5 865.8,792.8 856,792.8 856,782.5 859.9,782.5 859.9,769.2 
				839,769.2 839,752.3 			"/>
			<polygon class="st3" points="796.2,804.5 796.2,866.8 839.1,858.5 839.1,841.6 860.7,841.6 860.7,828.1 858.1,828.1 858.1,817.8 
				865.7,817.8 865.7,804.5 			"/>
			<polygon class="st3" points="737.4,891.1 796.2,866.8 796.2,840.5 726.6,840.3 726.6,851.3 734.7,851.3 734.7,861.4 732.1,861.4 
				732.1,873.1 737.4,873.1 			"/>
			<polygon class="st3" points="768.3,791.2 796.2,791.2 796.2,840.5 726.6,840.5 726.6,830 734.5,830 734.5,819.8 732,819.8 
				732,808.3 768.3,808.3 			"/>
			<polygon class="st3" points="726.4,742 726.4,752.6 734.3,752.6 734.3,762.7 731.6,762.7 731.6,774.4 768.2,774.4 768.2,791.3 
				796.1,791.3 796.1,742 			"/>
			<polygon class="st3" points="753.3,946 753.3,884.5 796.2,866.8 813.9,863.4 813.9,900.4 805.4,900.4 805.4,940.9 768.9,940.9 
				768.9,938.4 758.6,938.4 758.5,946 			"/>
			<polygon class="st3" points="813.9,863.4 813.9,900.4 822.5,900.4 822.5,924.2 839.4,924.2 839.4,942.9 855.6,942.9 859.4,939.5 
				857.6,937.7 864.8,930.5 870.4,936.1 873.8,932.8 847.9,906.9 847.9,858.5 839.1,858.5 			"/>
			<polygon class="st3" points="847.9,858.5 870.4,858.5 870.4,875.4 888.2,875.4 888.2,893.6 883,893.6 883,915.9 879.6,919.2 
				877.8,917.4 870.5,924.6 876.1,930.2 873.6,932.7 847.9,906.9 			"/>
			<path class="st3" d="M737.4,891.1h-43.9c0,0-19.9,0.6-19.9,19.9s0,35,0,35h15.5v-7.4h10.1v2.3h36.7v-40.5h17.3v-15.9L737.4,891.1
				z"/>
			<polygon class="st3" points="609.7,399.4 609.7,462.3 643.4,462.3 643.4,460.7 653.7,460.7 653.7,468.1 664.3,468.1 664.3,397.2 
							"/>
			<polygon class="st3" points="664.3,468.1 675.1,468.1 675.1,460.7 685.3,460.7 685.3,463 713.8,463 713.8,395.4 664.3,397.2 			
				"/>
			<polygon class="st3" points="713.8,395.4 757.5,393.6 757.5,464.1 749.2,464.1 749.2,456.6 739,456.6 739,459.1 713.8,459.1 			
				"/>
			<polygon class="st3" points="757.5,464.1 765.8,464.1 765.8,456.6 775.9,456.6 775.9,458.9 784.3,458.9 784.3,451.9 801.8,451.9 
				801.8,391.2 757.5,393.6 			"/>
			<polygon class="st3" points="801.8,391.2 850.8,389.4 850.8,458 840,458 840,450.1 829.7,450.1 829.7,451.8 801.8,451.8 			"/>
			<polygon class="st3" points="850.8,458 861.6,458 861.6,450.1 871.8,450.1 871.8,452.6 900.3,452.6 900.3,387.1 850.8,389.4 			
				"/>
			<polygon class="st3" points="900.3,387.1 928.1,385.9 947.4,441.1 958.1,453.2 950.4,460.9 944.7,455.5 937.5,462.7 939.3,464.5 
				936.3,467.5 917.2,467.5 917.2,451.9 900.3,451.9 			"/>
			<polygon class="st3" points="928.1,385.9 944.1,385.1 947.4,384.4 957.2,375.4 992.8,418.4 984.6,425.3 979.5,419.3 971.7,425.8 
				973.3,427.8 964.5,435 964,434.4 951,445.1 947.4,441.1 			"/>
			<polygon class="st3" points="957.2,375.4 993.7,341.9 1022.8,377.4 1009.9,388.2 1014.4,393.7 1005.6,400.9 1003.8,399.1 
				996,405.6 1000.9,411.4 992.8,418.4 			"/>
			<polygon class="st3" points="993.7,341.9 1044.1,296 1082.7,342.6 1077.9,346.2 1073.2,340.5 1065.3,346.9 1066.9,348.9 
				1039.8,371.1 1036,366.6 1022.8,377.4 			"/>
			<polygon class="st3" points="1096.5,359.2 1101,355.6 1083.3,334.5 1088.2,330.4 1083.1,324.4 1090.9,318 1092.5,319.9 
				1119.5,297.6 1104,279.1 1117.2,268.3 1099.9,247.4 1091.8,251.5 1044.1,296 			"/>
			<polygon class="st3" points="1100.1,247.4 1112,241.2 1153,201.1 1183.6,235.4 1130.4,284.4 			"/>
			<path class="st3" d="M1176.4,308.3l36.3-32.3l-19.3-21.1l-1.6,1.4l-6.8-7.4l5.9-5.7l-7.4-7.9l-53.2,49l17.5,21
				C1147.9,305.4,1160.8,318.9,1176.4,308.3z"/>
			<polygon class="st3" points="1119.5,547.8 1124.9,554.1 1132.6,547.6 1131,545.7 1144.5,534.6 1193.3,593.7 1164,618 
				1111.6,554.5 			"/>
			<polygon class="st3" points="1111.6,554.5 1103.3,561.4 1108.5,567.6 1100.6,574.1 1099,572.3 1090.2,579.7 1115.7,610.5 
				1102.6,621.4 1123.5,646.6 1124,651.1 1164,618 			"/>
			<polygon class="st3" points="1030.6,626.3 1038.3,626.3 1038.3,616 1035.6,616 1035.6,614.1 1056.9,593 1069.6,608.3 
				1082.6,597.3 1123.5,646.6 1055.4,646.6 1055.4,632.2 1030.6,632.2 			"/>
			<polygon class="st3" points="1055.4,646.6 1055.4,649.3 1054.9,649.3 1054.9,660.9 1057.4,660.9 1057.4,671.1 1050.5,671.1 
				1050.5,681.5 1126.9,681.5 1123.5,646.6 			"/>
			<polygon class="st3" points="1050.5,681.5 1050.5,692.4 1057.4,692.4 1057.4,702.4 1054.9,702.4 1054.9,714.1 1088.5,714.1 
				1088.5,731.1 1138,731.1 1130.8,722.4 1126.9,681.5 			"/>
			<polygon class="st3" points="1088.5,731.1 1088.5,748 1056,748 1056,759.7 1058.5,759.7 1058.5,769.9 1050.5,769.9 1050.5,780.3 
				1145.1,780.3 1158,755 1138,731.1 			"/>
			<polygon class="st3" points="1150.2,629.5 1172.2,656 1128,692.7 1124,651.1 			"/>
			<polygon class="st3" points="1172.2,656 1191.9,679.6 1134.4,727 1130.8,722.4 1128,692.7 			"/>
			<polygon class="st3" points="1134.4,727 1155.6,752.1 1215.8,702.9 1210,696.1 1204.3,701 1197.8,693.1 1199.8,691.5 
				1190.6,680.3 			"/>
			<polygon class="st3" points="1215.8,702.9 1220.7,708.9 1214.9,713.8 1221.4,721.7 1223.4,720.1 1228.4,726.4 1220.3,733.4 
				1231.1,746.4 1183.4,785.8 1155.6,752.1 			"/>
			<polygon class="st3" points="1231.1,746.4 1238.3,755.2 1233.6,758.6 1244.8,772.1 1243,773.7 1249.5,781.6 1255.2,776.8 
				1261.8,784.6 1215.1,823.9 1183.4,785.8 			"/>
			<path class="st3" d="M1215.1,823.9l10.8,13.1c0,0,12.4,15,29,2.7l27-23l-10.4-12.6l-2,1.6l-6.5-7.9l5.8-4.7l-7-8.6L1215.1,823.9z
				"/>
			<path class="st3" d="M1295.2,923.8l11.2,14.6l40.3-33.4l-20.4-25c0,0-13.6,10.9-24.4,20.2l-4.7,7l-2.7,8.4L1295.2,923.8z"/>
			<polygon class="st3" points="1346.7,904.9 1362.9,924.6 1322.5,957.9 1306.4,938.3 			"/>
			<polygon class="st3" points="1366.8,929.1 1331.2,958.6 1333.7,961.6 1320.2,972.8 1349.2,1007.7 1401.7,964.7 1390.4,950.8 
				1387,953.7 			"/>
			<path class="st3" d="M1471.3,964.9l-24.7-30.3l-65.8,56l41.6,50.2l9.4-8.1l-4.7-5.8l7.7-6.5l1.6,2l14.8-12.2l3.6,4.1l17.3-14.3
				C1471.9,1000.1,1487.8,985,1471.3,964.9z"/>
			<polygon class="st3" points="1338.9,1023.7 1355.1,1043.2 1368.3,1032.4 1390.9,1059.7 1401.4,1051.3 1399.8,1049.3 
				1407.7,1042.8 1412.5,1048.6 1422.3,1040.8 1380.7,990.6 			"/>
			<polygon class="st3" points="1243,1055.6 1256.1,1044.6 1245.5,1031.8 1273.2,1008.8 1307.4,1049.8 1266.4,1083.7 			"/>
			<polygon class="st3" points="1273.2,1008.8 1301.1,985.6 1311.7,998.5 1324.9,987.7 1348.4,1016.2 1307.4,1049.8 			"/>
			<polygon class="st3" points="1309.2,1048.2 1351.7,1098.6 1359.4,1091.8 1354.6,1086 1362.5,1079.5 1364.1,1081.5 1377.4,1070.5 
				1338.9,1023.7 			"/>
			<polygon class="st3" points="1289.9,1064.7 1328.5,1111 1332.1,1108.2 1330.4,1106 1338.2,1099.7 1343.1,1105.5 1351.7,1098.6 
				1309.2,1048.2 			"/>
			<polygon class="st3" points="1326.8,1119 1289.6,1073.4 1264.6,1094.1 1298.8,1135.3 1308,1128.1 1306.2,1126.2 1314.1,1119.7 
				1318.9,1125.4 			"/>
			<polygon class="st3" points="1272.8,1164.4 1234.5,1119.1 1259.4,1098.4 1293.6,1139.7 1284.7,1147.2 1283.1,1145.2 
				1275.4,1151.7 1280.6,1158 			"/>
			<polygon class="st3" points="1248,1184.7 1205.9,1133.9 1225.5,1117.7 1264.2,1164.3 1260.6,1167.2 1259,1165.2 1251.1,1171.9 
				1255.9,1177.6 			"/>
			<polygon class="st3" points="1205.9,1133.9 1176.4,1158.4 1215.1,1205 1228.6,1193.8 1226.9,1191.7 1234.9,1185.4 1239.6,1191.1 
				1248,1184.7 			"/>
			<polygon class="st3" points="1177.3,1266.4 1183.2,1207 1156.4,1174.8 1176.4,1158.4 1219.8,1210.6 1206.1,1221.9 1226.1,1245.9 
				1217.4,1253.1 1214.2,1248.9 1197.1,1263 1192.4,1262.6 1192.6,1260.1 1182.5,1259 1181.8,1266.7 			"/>
			<polygon class="st3" points="1156.4,1174.8 1139.5,1202.5 1131,1209.5 1152.4,1235.8 1144.5,1242.3 1158.7,1259.4 1163.8,1259.9 
				1164.1,1257.4 1174.2,1258.3 1173.5,1266 1177.3,1266.4 1183.2,1207 			"/>
			<polygon class="st3" points="1219,1053.3 1230,1066.4 1243,1055.6 1266.4,1083.7 1225.5,1117.7 1191.3,1076.5 			"/>
			<polygon class="st3" points="1191.3,1076.5 1163.4,1099.5 1174.2,1112.5 1161.1,1123.5 1184.8,1151.8 1225.5,1117.7 			"/>
			<polygon class="st3" points="1105,1133.1 1149.3,1186.4 1156.4,1174.8 1184.8,1151.8 1146.9,1106.2 1124.5,1123.8 1126.2,1125.8 
				1118.2,1132.3 1113.6,1126.5 			"/>
			<polygon class="st3" points="1105,1133.1 1096.7,1139.8 1101.7,1146 1093.9,1152.4 1092.3,1150.5 1077.4,1163.6 1121.7,1217.1 
				1131,1209.5 1139.5,1202.5 1149.3,1186.4 			"/>
			<path class="st3" d="M1066.6,1164.9l3.7,4.5l7-5.8l44.3,53.5l-18.2,14.8c0,0-15.4,9.9-27-4l-31.2-38.3l8.5-7.2l1.6,2l7.9-6.5
				l-4.9-6.2L1066.6,1164.9z"/>
			<polygon class="st3" points="735.2,1126.9 735.2,1135.2 724.9,1135.2 724.9,1132.6 713.4,1132.6 713.4,1133.5 678.9,1133.5 
				678.9,1194.7 746,1194.7 746,1126.9 			"/>
			<polygon class="st3" points="746,1194.7 746,1126.9 756.8,1126.9 756.8,1135.2 767,1135.2 767,1132.6 778.6,1132.6 778.6,1164.5 
				795.3,1164.5 795.3,1194.4 			"/>
			<polygon class="st3" points="869.4,1111.9 874,1117.8 840.8,1145.1 795.3,1194.4 795.3,1133.4 812.2,1133.4 812.2,1119.7 
				832,1119.7 836,1123.5 834.7,1124.7 841.9,1131.9 847.3,1126.3 851.1,1130.1 			"/>
			<polygon class="st3" points="840.8,1145.1 849,1155.7 843.2,1160.4 849.7,1168.3 851.7,1166.7 860.1,1176.9 841.2,1192.6 
				852,1205.7 826.5,1226.7 795.3,1194.4 			"/>
			<polygon class="st3" points="875.6,1186.9 826.5,1226.7 862.3,1267.6 886.6,1247.5 875.8,1234.3 894.7,1218.7 886.4,1208.2 
				884.4,1209.9 877.9,1201.9 884,1197.1 			"/>
			<polygon class="st3" points="886.6,1247.5 897.6,1260.4 916.5,1244.8 924.9,1255 922.9,1256.7 929.6,1264.6 935.5,1259.6 
				943.9,1269.9 896.8,1309.4 862.3,1267.6 			"/>
			<polygon class="st3" points="984.3,1236.8 896.8,1309.4 912.5,1328.3 959.3,1335.1 948.5,1322.2 967.4,1306.3 958.9,1296.1 
				957,1297.7 950.5,1290 956.4,1284.8 948,1274.5 988.3,1241.4 			"/>
			<path class="st3" d="M1007,1332.8l-13.1,11l20.5,24.8l-5.2,4.3l7,8.5l-20.9,17.5c0,0-5.3,4-1.9,11l45.8-38.2L1007,1332.8z"/>
			<polygon class="st3" points="913.2,1448.2 913.2,1476.8 858,1476.8 858,1430.8 870.9,1430.8 870.9,1448.2 			"/>
			<rect x="858" y="1476.8" class="st3" width="55.3" height="21.6"/>
			<polygon class="st3" points="913.2,1504.3 913.2,1533 865.7,1533 865.7,1504.2 			"/>
			<rect x="858" y="1539.6" class="st3" width="56.2" height="32.4"/>
			<polygon class="st3" points="858,1572 858,1621.7 925.1,1621.7 925.1,1610.4 918.4,1610.4 918.4,1604.4 914.3,1604.4 914.3,1572 
							"/>
			<polygon class="st3" points="858,1621.7 858,1672.8 926.9,1672.8 926.9,1664.5 919.2,1664.5 919.2,1654.3 921.7,1654.3 
				921.7,1621.7 			"/>
			<polygon class="st3" points="858,1672.8 858,1723.9 927.1,1723.9 927.1,1715.7 919.3,1715.7 919.3,1705.6 921.9,1705.6 
				921.9,1672.8 			"/>
			<polygon class="st3" points="858,1723.9 858,1775.3 926.9,1775.3 926.9,1767 919.3,1767 919.3,1756.9 921.9,1756.9 921.9,1723.9 
							"/>
			<polygon class="st3" points="975.9,1775.1 976,1777.2 922,1783.9 925.8,1815.7 923.3,1815.9 924.4,1826.2 932.2,1825.2 
				933.3,1833.6 981.6,1827.6 982.9,1841.7 858,1886.2 858,1775.3 			"/>
			<polygon class="st3" points="338.3,1123.1 338.3,1155.1 371.1,1155.1 384.2,1128.1 384.2,1126.7 355.6,1126.7 355.4,1123.1 			
				"/>
			<polygon class="st3" points="390.1,1126.7 390.1,1129.4 375.4,1161.1 411.7,1161.1 411.7,1126.7 			"/>
			<polygon class="st3" points="411.7,1126.7 439.1,1126.7 439.1,1129.2 468.1,1129.2 468.1,1160.9 411.7,1160.9 			"/>
			<path class="st3" d="M615.9,1103.4h8l-0.1-10.3h-2.7v-27.9h38.7c0,0,19.1,0.8,19.1,19.1v29.3l-63.1-0.1L615.9,1103.4
				L615.9,1103.4z"/>
			<polygon class="st3" points="615.9,1113.5 615.9,1122.2 623.8,1122.2 623.8,1133.9 678.9,1133.9 678.9,1113.6 			"/>
			<polygon class="st3" points="615.9,1139.7 673.5,1139.7 673.5,1194.4 627.4,1194.4 627.4,1166.3 621.4,1166.3 621.4,1158 
				624,1158 624,1147.8 615.9,1147.8 			"/>
			<polygon class="st3" points="719.4,1194.7 719.4,1214 769.8,1214 769.8,1230.7 772.3,1230.7 772.3,1241 764.6,1241 764.6,1251.8 
				848.3,1251.8 826.5,1226.7 795.3,1194.4 			"/>
			<polygon class="st3" points="764.6,1251.8 764.6,1262.4 772.5,1262.4 772.5,1272.5 769.9,1272.5 769.9,1290.1 880.7,1290.1 
				848.3,1251.8 			"/>
			<polygon class="st3" points="800.9,1290.1 800.9,1307.4 803.2,1307.4 803.2,1317.7 795.9,1317.7 795.9,1328.3 912.5,1328.3 
				880.7,1290.1 			"/>
			<polygon class="st3" points="616,1200.3 661.2,1200.3 661.2,1268.9 649.7,1268.9 649.7,1258.6 639.4,1258.6 639.4,1263 
				627.9,1263 627.9,1221.6 611.2,1221.6 611.2,1218.4 616,1218.4 			"/>
			<path class="st3" d="M611.2,1286.8h-5.6v-7.9h-10.1v2.7h-43.9c0,0,2-18.9,2-25.7v-16.4c0-3.9,0.8-7.7,2.5-11.1
				c2.4-4.8,7.2-10,16.2-10h38.8L611.2,1286.8L611.2,1286.8z"/>
			<polygon class="st3" points="1050.5,780.3 1050.5,791.2 1058.5,791.2 1058.5,801.3 1056,801.3 1056,811.7 1057.8,811.7 
				1057.8,823 1123.5,823 1145.1,780.3 			"/>
			<polygon class="st3" points="1158,755 1183.8,786.3 1170.8,797.1 1190.6,821.1 1180,829.9 1175.1,823.8 1167.4,830.2 
				1168.5,831.7 1158.2,840.3 1144.9,824.1 1132.6,834.2 1123.5,823 			"/>
			<g>
				<polygon class="st1" points="270.4,1070.2 304.5,1070.2 304.5,1162.3 196.8,1162.3 196.8,1121.8 241.1,1121.8 241.1,1113.6 
					270.4,1113.6 				"/>
				<polygon class="st2" points="270.4,1070.2 304.5,1070.2 304.5,1162.3 196.8,1162.3 196.8,1121.8 241.1,1121.8 241.1,1113.6 
					270.4,1113.6 				"/>
			</g>
			<polygon class="st3" points="795.9,1328.3 795.9,1339.1 803.4,1339.1 803.4,1349.2 801.5,1349.2 801.5,1365.9 750.5,1365.9 
				750.5,1387 857.6,1387 857.6,1328.2 			"/>
			<path class="st4" d="M-96.3-313.7v3370h2384v-3370L-96.3-313.7L-96.3-313.7z M1095.9,1967.7l-20.9-89.5l-17.1-62.9l-111.1,39.3
				l0,0l-1.3-3.6l-72.9,26.1l-11,4.1l-0.2-27.5l0.4-90v-73.8l0.2-63.4l-0.2-72.9l-0.2-69.1v-54.4l-0.6-42.9l-335.9-1.4l-326.8-3.8
				l-0.2-41l-0.8-116.1l-0.2-91.4v-52.4l2.4-625.9l0.5-18.4l0.6-19.7l78.1-0.2l97-3.2l82.4-2.3l76.1-3.4l77.4-3.4l49-2l72-2.9
				l29.3-1.1l39.6-1.8l49.1-2.2l49.5-2.2l44.6-2.2l3.8-0.7l10.3-9.5l14.4-13.3l22-20.2l25.6-23.4l20-18.4l50.6-46.3l2-2.3l19.3-9.7
				l2-1.3l15.5-15.5l15.1-15.1l27.4-26.1l27.2-25.7l30.7-31.7l45.8,50.5l15.9,17.5l24.5,25.3l27.4,30.4l-35.4,28.2l-34,30.1
				l-37.4,32.8l-13.9,17.5l-20.2,20.7l-23.8,18.4l-25.7,20.2l2.2,3.8l13.1,15.8l12.8,15.8l8.5,10.1l5.6,6.7l7.9,9l10.4,12.4l7,8.1
				l6.8,8.1l11.9,13.7l11.7,13.7l0.1-0.1l13.8,16.3l11.2,12.8l11.3,13.7l11.5,13.7l12.2,14.4l10.4,12.8l23.2,28.6l21.6,26.3
				l22.9,28.4l24.7,29.9l23.4,27.2l22.7,26.3l23,28.4l22.1,27l26.5,33.1l17.8,23.6l22.3,29.2l22.7,29.5l22.7,29.7l22.7,29.3
				l21.6,28.3l23.2,30.1l22.5,29l22.7,29.2l21.8,28.1l22.3,29.2l23.2,30.1l21.1,27.5l22.1,27.5l22.7,30.8l22.9,30.1l10.3,13.3
				l19.3,25.9l-31.3,33.1l-33.1,34.9l-5.6,6.7l-36.7,29.9l-13.1,10.4l-52.4,38.7l-52.2,38.7l-23.4,18.7l-23.2,18.7l-70.4,57.2
				l-38.7,31.3l-61.4,50l-88.7,72l-70,57.2l-46.4,37.8l-116.1,94.9l-10.1,4.3l-36.4,2.3l-10.8-47.9"/>
			<path class="st5" d="M1334.2,57.4l-59.2,48.4c0.6,0.7,1.2,1.4,1.8,2.2l4.7,5.6c2.1,2.6,4.3,5.2,6.4,7.7c2.4,2.9,4.8,5.7,7.1,8.6
				l6.7,8.1c1.8,2.1,3.5,4.2,5.3,6.3c2.2,2.6,3.3,4.7,3.8,8.1c0.4,2.8,0.5,5.6,0.4,8.4c-0.1,3.7-0.7,7.4-1.6,10.9
				c-1.1,4.3-2.9,8.5-5.1,12.4c-2.7,4.7-6.2,8.9-10.1,12.6c-1,1-2.1,1.9-3.2,2.8c-22.1,16.2-42.9,49-46.2,54.3
				c-3.5,5.5-16.8,23.9-16.8,23.9s-37.8,38.8-65.5,58c-27.8,19.2-47.1,50.9-70.3,85.2c-23.1,34.2-76.3,66.7-102.4,92.9
				s-59.3,26-59.3,26H675c-53.6,4.3-53.4,53.8-53.4,53.8v211.3l0.3,131.2c3.3,33-2.7,51.2-2.7,51.2c-8.3,27.4-39.6,28.1-39.6,28.1
				H212.3l-10.4,0.4c-11.9,0.8-22.2-16.2-22.2-31.8V413.5h-84v833.4c0,28.3-26.8,53.6-40.4,53.6v61.6c13.6,0,40.4,25.3,40.4,53.6
				v468.8l84-0.1V1077c0-15.6,9.5-31.1,22.2-31l14.2-0.2c0,0,80.4,0,150.7,0l0,0h96.8c24.3,0,34.9,13.9,39.5,24.8l0,0
				c2.9,6.9,3.4,12.6,3.4,12.6s0,71.2,0,84.1s-8.8,23.8-8.8,23.8c-14.1,16.7-30.7,16.6-30.7,16.6h-27.8v28.3h23.6
				c11,0.8,13.4,2.5,13.4,2.5c27.6,10.5,27.6,33.8,28.1,40.2c0.5,6.4-8.6,65.7-11.4,83.6c-0.6,4.2-1.3,9.4-2.6,22.7l34.9,0.4
				c1.4-11.7,2.5-19.6,3.6-28.2l3.5-25.5l0,0c1.9-13.5,3.5-25.4,4.1-29.6c1.7-12.1,4.5-45,4.5-45s0-140.7,0-159.5
				c0-8.6,0.3-14.7,1.6-20l0,0c1.5-6.3,4.4-11.4,9.9-18.4c10-13,29.7-14.2,29.7-14.2h257.5c0,0,34.9,0,57.2,0
				c9.9,0,17.9,3.5,23.6,7.5l2,1.4c5.8,4.4,8.9,8.9,8.9,8.9c12,13.7,7.6,39.3,6.5,56.3l0,0c-0.2,2.6-0.2,5-0.2,7.1
				c0.3,7.5,4.3,17,8.5,24.9l0,0c4.7,8.9,9.6,15.7,9.6,15.8l32.4,39.1l36.5,44.1l28.6,33.8l46,51.8l13.3,14.7l5.3,5.3
				c25.4,33.4-1.1,58.3-1.1,58.3l-44.5,38c-8.3,8.3-15,17-20.4,25.6c0,0-11.1,20.5-13.3,26.9c-8.5,22.4-9,39.5-9,39.5v131.9h31V1625
				c-0.1-38.7,33.2-40,33.2-40h37.5v-28.4h-29c-7.5,0-28.1-2.9-33.5-28.2s28.6-56.6,28.6-56.6l47-40.7c0,0,91.7-78.7,109.8-91.6
				c18.1-12.9,30.3-16,30.3-16c18.7-5,32.5,11,32.5,11l30.2,36.9l21.8-18.2c-20.3-22.1-30.7-40.8-31.4-42.2c0-0.1,0-0.1-0.1-0.2
				c-7.3-19.5,9.7-35.1,9.7-35.1l48.9-40.8l-18-21.8l-4.5,3.6l-63.3,52.4c0,0-9.1,9.9-46.3,31.2c-37.2,21.3-29.9,18-61.6,41.4
				s-57.3-2.6-57.3-2.6l-72.6-80.7c0,0-77-95.1-90.2-108.3s-15.7-35.5-7.2-50s21.2-20.3,29.1-21.7c7.9-1.4,25.4-1.1,25.5-1.1
				c26-1.8,44.5-18,44.5-18l271.5-224.8c9.6-7.9,20.7-10.3,20.8-10.3c30.5-4.3,43.6,18.5,43.6,18.5l12,14.7l21.5-17.9l2.6-2
				L1352,723.9l-24.2,20.3l5.1,5.1c24.3,28.4-2.5,57.1-2.6,57.1l-73.2,60.8l-172.8,143.3c-37.9,37.9-60.7,35.9-60.7,35.9
				c-54.8,0-49.3-51.4-49.3-51.4V776.5c0,0,0-152.1,0-182.4c0-30.2,15-39.9,15-39.9l101.4-85.2c15.6-14.1,34.2-40.7,41.5-51.4
				c1.5-2.2,2.9-4.5,4.2-6.9c10.4-19.6,48.5-53.4,48.5-53.4s50.7-44,58.8-51.1c8.1-7.1,18.8-22.2,19.7-23.5
				c0.7-1.1,6.6-10.6,8.9-14.3c0.6-1,1.1-2,1.7-3c7.6-13.9,19.1-25.7,30.6-36.4c3.3-3.1,6.8-6,10.2-9c11-10.3,26.7-14.6,41.1-10.1
				c1.7,0.5,3.4,1.2,5.1,1.9c3.6,1.6,6,4.3,8.5,7.3c0.5,0.6,1,1.1,1.4,1.7c0.5,0.7,1.1,1.3,1.6,2c0.6,0.7,1.2,1.5,1.8,2.2
				c0.7,0.8,1.3,1.6,2,2.4c0.7,0.9,1.5,1.8,2.2,2.6c0.8,0.9,1.6,1.9,2.4,2.8c0.8,1,1.7,2,2.5,3.1c0.9,1.1,1.8,2.2,2.7,3.3
				c1,1.2,1.9,2.3,2.9,3.5s2,2.4,3.1,3.7s2.1,2.6,3.2,3.9c1.1,1.4,2.3,2.7,3.4,4.1c1.2,1.4,2.4,2.8,3.5,4.2c1.2,1.5,2.5,2.9,3.7,4.4
				c1.3,1.5,2.6,3.1,3.8,4.6c1.3,1.6,2.7,3.2,4,4.8c1.4,1.6,2.7,3.3,4.1,4.9c1.4,1.7,2.8,3.4,4.3,5.1c1.5,1.8,2.9,3.5,4.4,5.3
				s3,3.6,4.5,5.4l4.7,5.6l4.8,5.7c1.6,2,3.3,3.9,4.9,5.9c1.7,2,3.3,4,5,6l5.1,6.1c1.7,2.1,3.5,4.2,5.2,6.3c1.8,2.1,3.6,4.3,5.3,6.4
				l5.4,6.5c1.8,2.2,3.7,4.4,5.5,6.6c1.9,2.3,3.8,4.5,5.6,6.8l5.7,6.9c1.9,2.3,3.9,4.6,5.8,7c2,2.4,3.9,4.7,5.9,7.1l6,7.2
				c2,2.4,4,4.8,6.1,7.3c2,2.5,4.1,4.9,6.1,7.4c2.1,2.5,4.1,5,6.2,7.4c2.1,2.5,4.2,5,6.3,7.5c2.1,2.5,4.2,5.1,6.3,7.6l6.4,7.7
				l6.4,7.7l6.5,7.8c2.2,2.6,4.4,5.2,6.5,7.9c2.2,2.6,4.4,5.3,6.6,7.9c2.2,2.7,4.4,5.3,6.6,8s4.4,5.3,6.7,8l6.7,8
				c2.2,2.7,4.5,5.4,6.7,8.1c2.3,2.7,4.5,5.4,6.8,8.1s4.5,5.4,6.8,8.1s4.5,5.4,6.8,8.2c2.3,2.7,4.6,5.5,6.8,8.2
				c2.3,2.7,4.6,5.5,6.8,8.2l6.9,8.2l6.9,8.2l6.9,8.2l6.9,8.2c2.3,2.7,4.6,5.5,6.9,8.2s4.6,5.5,6.8,8.2c2.3,2.7,4.6,5.5,6.8,8.2
				c2.3,2.7,4.5,5.5,6.8,8.2s4.5,5.4,6.8,8.2c2.3,2.7,4.5,5.4,6.8,8.1l6.8,8.1c2.2,2.7,4.5,5.4,6.7,8.1c2.2,2.7,4.5,5.4,6.7,8
				c2.2,2.7,4.4,5.3,6.7,8c2.2,2.6,4.4,5.3,6.6,7.9l6.6,7.9c2.2,2.6,4.4,5.2,6.5,7.8c2.2,2.6,4.3,5.2,6.5,7.8
				c2.1,2.6,4.3,5.1,6.4,7.7c2.1,2.5,4.2,5.1,6.4,7.6c2.1,2.5,4.2,5,6.3,7.6c2.1,2.5,4.2,5,6.2,7.5c2.1,2.5,4.1,4.9,6.2,7.4
				c2,2.4,4.1,4.9,6.1,7.3s4,4.8,6,7.2s4,4.8,5.9,7.1c2,2.3,3.9,4.7,5.9,7c1.9,2.3,3.9,4.6,5.8,6.9s3.8,4.5,5.7,6.8
				c1.9,2.2,3.7,4.5,5.6,6.7c1.8,2.2,3.7,4.4,5.5,6.6s3.6,4.3,5.4,6.5c1.8,2.1,3.5,4.2,5.3,6.4c1.7,2.1,3.5,4.1,5.2,6.2
				c1.7,2,3.4,4.1,5.1,6.1s3.3,4,5,6c1.6,1.9,3.2,3.9,4.8,5.8c1.6,1.9,3.1,3.8,4.7,5.7c1.5,1.8,3.1,3.7,4.6,5.5s3,3.6,4.5,5.4
				c1.4,1.7,2.9,3.5,4.3,5.2s2.8,3.4,4.2,5c1.4,1.6,2.7,3.2,4.1,4.9l3.9,4.7c1.3,1.5,2.5,3,3.8,4.5c1.2,1.4,2.4,2.9,3.6,4.3
				s2.3,2.8,3.5,4.2c1.1,1.3,2.2,2.6,3.3,4c1.1,1.3,2.1,2.5,3.2,3.8c1,1.2,2,2.4,3,3.6c0.9,1.1,1.9,2.3,2.8,3.4s1.8,2.1,2.6,3.2
				c0.8,1,1.7,2,2.5,3c0.8,0.9,1.5,1.8,2.3,2.8c0.7,0.8,1.4,1.7,2.1,2.5c0.6,0.8,1.3,1.5,1.9,2.3c0.6,0.7,1.2,1.4,1.7,2.1
				c0.5,0.6,1,1.2,1.5,1.9c0.5,0.5,0.9,1.1,1.4,1.6c0.4,0.5,0.8,0.9,1.2,1.4c0.3,0.4,0.6,0.8,1,1.1c0.2,0.3,0.5,0.6,0.7,0.9l0.5,0.6
				c0.1,0.1,0.2,0.3,0.3,0.4l0.1,0.1l60.6-55.4L1334.2,57.4z M943.5,813.1v160.8c0,0,0,26-29.6,38c-1.2,0.5-2.5,0.9-3.8,1.1l0,0
				c-1.7,0.4-3.5,0.6-5.2,0.6l-51.2,0.5H693.8c0,0-40.5-1.8-40.5-42.1s0-150.7,0-150.7V637.6c0,0,1.5-47.1,44.5-62.2
				c0,0,8.3-6.5,56.3-4.5h40.3h84.4H905c0,0,38.5,1,38.5,51.7C943.5,673.2,943.5,813.1,943.5,813.1z"/>
			<path class="st6" d="M922.4,1053.9l-2-1.4C921.1,1053,921.8,1053.4,922.4,1053.9z"/>
			<g>
				<rect x="295.2" y="683.7" class="st7" width="402" height="18"/>
				<text transform="matrix(1 0 0 1 295.1711 698.8081)" class="st8 st9 st10">BOURNE HALL</text>
			</g>
			<text transform="matrix(0.6367 0.7711 -0.7711 0.6367 1556.5811 388.4913)" class="st8 st9 st10">BIRMINGHAM NEW ROAD</text>
			<text transform="matrix(1.520000e-02 0.9999 -0.9999 1.520000e-02 128.649 1046.1749)" class="st8 st9 st10">TIPTON ROAD</text>
			<g>
				<polygon class="st11" points="1846.5,206.9 1776.7,363.3 1847,326.7 1916.4,363.3 				"/>
				<g>
					<path class="st12" d="M1828.7,273.8h11.6l16.5,26.9h0.1v-26.9h8.5v38.8h-11.2l-16.9-27.6h-0.1v27.6h-8.5V273.8z"/>
				</g>
			</g>
			<circle class="st13" cx="1848.5" cy="294.3" r="67.2"/>
		</g>
	</g>
	<g id="OTHER">
		<polygon class="st14" points="519.3,770.1 519.3,756.3 506.4,747.8 500.8,747.8 500.8,682.9 511.6,682.9 518.2,675 518.2,663.8 
			510.4,654.5 500.8,654.5 500.8,580.5 500.6,580.5 500.6,576.3 541.4,576.3 541.4,506.7 444.7,506.7 444.7,575.8 406,575.8 
			406,589.1 403,592.2 403,603.3 406,606.4 406,620 444.7,620 444.7,760.1 442.6,760.1 442.6,797.3 444.7,797.3 444.7,937.8 
			406,937.8 406,951.1 403,954.2 403,965.2 406,968.3 406,981.9 500.6,981.9 500.6,981.6 500.8,981.6 500.8,881.4 511.4,881.4 
			518,873.5 518,862.3 510.2,853 500.8,853 500.8,809.4 505.9,809.4 519.4,801.3 523.6,807.4 536.4,807.4 540.9,801.4 540.9,784.7 
			544.9,784.7 544.9,770.1 		"/>
		
			<rect x="1165.3" y="607.9" transform="matrix(0.7733 -0.634 0.634 0.7733 -124.488 896.0831)" class="st15" width="51.3" height="28.5"/>
		
			<rect x="1183.2" y="630" transform="matrix(0.7733 -0.634 0.634 0.7733 -134.4744 912.4554)" class="st15" width="51.3" height="28.5"/>
		
			<rect x="1338.4" y="853.6" transform="matrix(0.7733 -0.634 0.634 0.7733 -242.1465 1061.6742)" class="st15" width="50.6" height="31.8"/>
		
			<rect x="1358.4" y="878.1" transform="matrix(0.7733 -0.634 0.634 0.7733 -253.1701 1079.9294)" class="st15" width="50.6" height="31.8"/>
		
			<rect x="1378.4" y="902.6" transform="matrix(0.7733 -0.634 0.634 0.7733 -264.1456 1098.1971)" class="st15" width="50.6" height="31.8"/>
		
			<rect x="1245.8" y="942.8" transform="matrix(0.7733 -0.634 0.634 0.7733 -327.8871 1020.9608)" class="st15" width="36.2" height="52.5"/>
		
			<rect x="1217.6" y="965.8" transform="matrix(0.7733 -0.634 0.634 0.7733 -348.8557 1008.3564)" class="st15" width="36.2" height="52.5"/>
		
			<rect x="1164.1" y="1010.9" transform="matrix(0.7733 -0.634 0.634 0.7733 -389.5863 984.6071)" class="st15" width="36.2" height="52.5"/>
		
			<rect x="1136" y="1033.8" transform="matrix(0.7733 -0.634 0.634 0.7733 -410.4572 972.0375)" class="st15" width="36.2" height="52.5"/>
		<rect x="923.3" y="1448.2" class="st15" width="51.3" height="28.3"/>
		<rect x="923.3" y="1476.5" class="st15" width="51.3" height="28.3"/>
		<rect x="923.3" y="1504.8" class="st15" width="51.3" height="28.3"/>
		<rect x="924.6" y="1539.6" class="st15" width="51.3" height="32.2"/>
		<rect x="924.6" y="1571.9" class="st15" width="51.3" height="32.2"/>
		<polygon class="st15" points="349.8,1317.1 349.8,1363.4 353.1,1363.4 353.1,1365.7 369.6,1365.7 369.6,1363 391.4,1363.2 
			391.4,1317.1 		"/>
		<polygon class="st15" points="452.4,1363 452.4,1357.3 454.9,1357.3 454.9,1336.9 452.4,1336.9 452.4,1317.8 410.9,1317.8 
			410.9,1363.2 		"/>
		<polygon class="st15" points="452.4,1298.8 454.9,1298.8 454.9,1278.4 452.2,1278.4 452.2,1272.7 410.9,1272.7 410.9,1317.8 
			452.4,1317.8 		"/>
		<rect x="355.4" y="1065.7" class="st15" width="28.3" height="51.1"/>
		<rect x="383.7" y="1065.7" class="st15" width="28.3" height="51.1"/>
		<rect x="411.9" y="1065.7" class="st15" width="28.3" height="51.1"/>
		<polygon class="st15" points="219.1,1285.8 216.6,1285.8 216.6,1306.2 219.3,1306.2 219.3,1310.3 262,1310.3 262,1257.9 
			219.1,1257.9 		"/>
		<polygon class="st15" points="219.3,1310.3 219.3,1340 216.8,1340 216.8,1360.5 219.3,1360.5 219.3,1366.1 262,1366.1 262,1310.3 
					"/>
		<polygon class="st15" points="321.9,1317.3 321.9,1363.4 318.9,1363.4 318.9,1365.9 302.3,1365.9 302.3,1363.3 279.6,1363.3 
			279.6,1317.3 		"/>
		<rect x="391.4" y="1306.7" class="st15" width="19.5" height="56.5"/>
		<polygon class="st15" points="219.1,1237.8 262,1237.8 261.6,1182.7 219,1182.7 219,1188.4 216.4,1188.4 216.4,1208.8 
			219.1,1208.8 		"/>
		<rect x="219.1" y="1237.8" class="st15" width="42.8" height="20.1"/>
		<rect x="262.3" y="1317.3" class="st15" width="17.3" height="45.9"/>
		<polygon class="st15" points="270.4,1070.2 250,1070.2 250,1068.8 235.9,1068.8 232.6,1065.6 224.8,1065.6 221.8,1068.7 
			216.5,1068.7 216.5,1090.4 214.6,1090.4 214.6,1095.2 211.1,1098.7 211.1,1105.6 214.7,1109.2 214.7,1114.1 219,1114.1 
			219,1121.8 241.1,1121.8 241.1,1113.6 270.4,1113.6 		"/>
		<g id="PLOT_NUMBER">
			<rect x="1175.8" y="617.2" class="st7" width="31" height="10.9"/>
			<text transform="matrix(1 0 0 1 1184.7762 626.2074)" class="st16 st9 st17">1</text>
			<text transform="matrix(1 0 0 1 1191.1763 626.2074)" class="st16 st9 st17">4</text>
			<rect x="1194.7" y="637.5" class="st7" width="31" height="10.9"/>
			<text transform="matrix(1 0 0 1 1203.6621 646.5011)" class="st16 st9 st17">1</text>
			<text transform="matrix(1 0 0 1 1210.0621 646.5011)" class="st16 st9 st17">5</text>
			<rect x="1140.3" y="1054.7" class="st7" width="31" height="10.9"/>
			<text transform="matrix(1 0 0 1 1149.1782 1063.7368)" class="st16 st9 st17">56</text>
			<rect x="1167.3" y="1033.2" class="st7" width="31" height="10.9"/>
			<text transform="matrix(1 0 0 1 1176.1803 1042.2546)" class="st16 st9 st17">57</text>
			<rect x="1223.9" y="987.8" class="st7" width="31" height="10.9"/>
			<text transform="matrix(1 0 0 1 1232.7012 996.8945)" class="st16 st9 st17">58</text>
			<rect x="1249.4" y="966.3" class="st7" width="31" height="10.9"/>
			<text transform="matrix(1 0 0 1 1258.2607 975.2966)" class="st16 st9 st17">59</text>
			<rect x="1346.9" y="864.2" class="st7" width="31" height="10.9"/>
			<text transform="matrix(1 0 0 1 1355.7003 873.2949)" class="st16 st9 st17">60</text>
			<rect x="1368.9" y="887.2" class="st7" width="31" height="10.9"/>
			<text transform="matrix(1 0 0 1 1377.7222 896.2163)" class="st16 st9 st17">61</text>
			<rect x="1389.4" y="912.7" class="st7" width="31" height="10.9"/>
			<text transform="matrix(1 0 0 1 1398.182 921.7747)" class="st16 st9 st17">62</text>
			<rect x="934" y="1582.1" class="st7" width="31" height="10.9"/>
			<text transform="matrix(1 0 0 1 942.7821 1591.136)" class="st16 st9 st17">77</text>
			<rect x="934.4" y="1552.2" class="st7" width="31" height="10.9"/>
			<text transform="matrix(1 0 0 1 943.2623 1561.2566)" class="st16 st9 st17">78</text>
			<rect x="934.4" y="1512.5" class="st7" width="31" height="10.9"/>
			<text transform="matrix(1 0 0 1 943.2623 1521.536)" class="st16 st9 st17">79</text>
			<rect x="934.4" y="1484.5" class="st7" width="31" height="10.9"/>
			<text transform="matrix(1 0 0 1 943.2623 1493.5161)" class="st16 st9 st17">80</text>
			<rect x="934" y="1459" class="st7" width="31" height="10.9"/>
			<text transform="matrix(1 0 0 1 942.7821 1468.075)" class="st16 st9 st17">81</text>
			<rect x="410.2" y="1088.2" class="st7" width="31" height="10.9"/>
			<text transform="matrix(1 0 0 1 415.6559 1097.2147)" class="st16 st9 st17">125</text>
			<rect x="382.2" y="1088.2" class="st7" width="31" height="10.9"/>
			<text transform="matrix(1 0 0 1 387.6843 1097.2147)" class="st16 st9 st17">126</text>
			<rect x="354.1" y="1088.2" class="st7" width="31" height="10.9"/>
			<text transform="matrix(1 0 0 1 359.6059 1097.2147)" class="st16 st9 st17">127</text>
			<rect x="226.6" y="1089.6" class="st7" width="31" height="10.9"/>
			<text transform="matrix(1 0 0 1 232.0458 1098.6552)" class="st16 st9 st17">128</text>
			<rect x="351.5" y="1333.6" class="st7" width="100" height="10.9"/>
			<text transform="matrix(1 0 0 1 376.2321 1342.6052)" class="st16 st9 st17">104 - 112</text>
			<rect x="220" y="1333.6" class="st7" width="100" height="10.9"/>
			<text transform="matrix(1 0 0 1 244.7646 1342.6052)" class="st16 st9 st17">113 - 124</text>
		</g>
	</g>
	<g id="WOODHOUSE">
		<g id="item63">
			<polygon class="st18" points="1483.5,1058.4 1455.7,1081.3 1422.2,1040.8 1450.1,1017.8 1453.2,1020.9 1456.5,1021.4 
				1461.1,1027 1460.8,1030.8 			"/>
			<rect x="1436.3" y="1043.8" class="st7" width="31" height="10.9"/>
			<text transform="matrix(1 0 0 1 1445.1617 1052.8757)" class="st12 st9 st17">63</text>
		</g>
	</g>
	<g id="COLDICOTT">
		<g id="item10">
			
				<rect x="1048.4" y="355.1" transform="matrix(0.7673 -0.6413 0.6413 0.7673 11.5197 775.1995)" class="st19" width="51" height="33.3"/>
			<rect x="1056.9" y="366.5" class="st7" width="31" height="10.9"/>
			<text transform="matrix(1 0 0 1 1065.78 375.5372)" class="st12 st9 st17">10</text>
		</g>
		<g id="item11">
			
				<rect x="1088.1" y="314.3" transform="matrix(0.7673 -0.6413 0.6413 0.7673 46.8647 791.1907)" class="st19" width="51" height="33.4"/>
			<rect x="1096.4" y="325.9" class="st7" width="31" height="10.9"/>
			<text transform="matrix(1 0 0 1 1105.2617 334.9117)" class="st12 st9 st17">11</text>
		</g>
		<g id="item98">
			<rect x="559.9" y="1286.8" class="st19" width="51.3" height="33.4"/>
			<rect x="568.9" y="1299.1" class="st7" width="31" height="10.9"/>
			<text transform="matrix(1 0 0 1 577.7429 1308.1763)" class="st12 st9 st17">98</text>
		</g>
	</g>
	<g id="EARL">
		<g id="item82">
			<polygon class="st20" points="1040.1,1305.4 1007,1332.8 1039.2,1371.7 993.1,1409.8 1020.7,1443 1099.9,1377.4 			"/>
			<rect x="1050.7" y="1367.2" class="st7" width="31" height="10.9"/>
			<text transform="matrix(1 0 0 1 1050.9144 1376.2166)" class="st16 st9 st17">82-87</text>
		</g>
	</g>
	<g id="GARRATT">
		<g id="item73">
			
				<rect x="930.4" y="1785.2" transform="matrix(0.9924 -0.123 0.123 0.9924 -215.1211 131.1747)" class="st21" width="48.9" height="45.4"/>
			<rect x="939.1" y="1801.7" class="st7" width="31" height="10.9"/>
			<text transform="matrix(1 0 0 1 947.8807 1810.7373)" class="st12 st9 st17">73</text>
		</g>
		<g id="item74">
			<rect x="926.9" y="1729.9" class="st21" width="48.9" height="45.4"/>
			<rect x="934.6" y="1746.4" class="st7" width="31" height="10.9"/>
			<text transform="matrix(1 0 0 1 943.3817 1755.4763)" class="st12 st9 st17">74</text>
		</g>
		<g id="item75">
			<rect x="926.9" y="1678.5" class="st21" width="48.9" height="45.4"/>
			<rect x="935" y="1694.8" class="st7" width="31" height="10.9"/>
			<text transform="matrix(1 0 0 1 943.8618 1703.8173)" class="st12 st9 st17">75</text>
		</g>
		<g id="item76">
			<rect x="926.9" y="1627.4" class="st21" width="48.9" height="45.4"/>
			<rect x="935.5" y="1643.8" class="st7" width="31" height="10.9"/>
			<text transform="matrix(1 0 0 1 944.3419 1652.8164)" class="st12 st9 st17">76</text>
		</g>
	</g>
	<g id="WALKER">
		<g id="item07">
			<polygon class="st22" points="920.1,472.8 920.1,504.1 951.4,504.1 976.4,479.1 954.3,457.1 938.4,472.8 			"/>
			<rect x="929.3" y="481.1" class="st7" width="31" height="10.9"/>
			<text transform="matrix(1 0 0 1 938.4 490.099)" class="st12 st9 st17">0</text>
			<text transform="matrix(1 0 0 1 944.6 490.099)" class="st12 st9 st17">7</text>
		</g>
		<g id="item34">
			<polygon class="st22" points="1030.6,630.1 999.3,630.1 999.3,598.8 1024.3,573.8 1046.2,595.9 1030.6,611.8 			"/>
			<rect x="1001.5" y="597.8" class="st7" width="31" height="10.9"/>
			<text transform="matrix(1 0 0 1 1010.34 606.8287)" class="st12 st9 st17">34</text>
		</g>
		<g id="item37">
			<polygon class="st22" points="874.4,637.2 890.3,653 890.3,671.4 921.6,671.4 921.6,639.9 896.7,615 			"/>
			<rect x="887.6" y="640.7" class="st7" width="31" height="10.9"/>
			<text transform="matrix(1 0 0 1 896.464 649.7402)" class="st12 st9 st17">37</text>
		</g>
		<g id="item38">
			<polygon class="st22" points="874.4,637.2 858.6,621.4 840.2,621.4 840.2,590.1 871.7,590.1 896.6,615 			"/>
			<rect x="848.1" y="603.7" class="st7" width="31" height="10.9"/>
			<text transform="matrix(1 0 0 1 856.9802 612.7784)" class="st12 st9 st17">38</text>
		</g>
		<g id="item40">
			<polygon class="st22" points="719.9,637.2 735.7,621.4 754.1,621.4 754.1,590.1 722.6,590.1 697.7,615 			"/>
			<rect x="714.2" y="603.7" class="st7" width="31" height="10.9"/>
			<text transform="matrix(1 0 0 1 723.0006 612.7909)" class="st12 st9 st17">40</text>
		</g>
		<g id="item41">
			<polygon class="st22" points="719.9,637.2 704.1,653.1 704.1,671.4 672.8,671.4 672.8,639.9 697.6,615 			"/>
			<g>
				<rect x="675.7" y="637.5" class="st7" width="31" height="10.9"/>
				<text transform="matrix(1 0 0 1 684.4815 646.5011)" class="st12 st9 st17">41</text>
			</g>
		</g>
		<g id="item48">
			<polygon class="st22" points="873.7,932.8 857.9,948.6 839.5,948.6 839.5,979.9 871,979.9 895.9,955 			"/>
			<rect x="849.2" y="954.9" class="st7" width="31" height="10.9"/>
			<text transform="matrix(1 0 0 1 858.0748 963.9822)" class="st12 st9 st17">48</text>
		</g>
		<g id="item49">
			<polygon class="st22" points="873.7,932.8 889.5,917 889.5,898.6 920.8,898.6 920.8,930.1 895.9,955 			"/>
			<rect x="881.8" y="924.9" class="st7" width="31" height="10.9"/>
			<text transform="matrix(1 0 0 1 890.581 933.897)" class="st12 st9 st17">49</text>
		</g>
		<g id="item71">
			<polygon class="st22" points="1213,1256.8 1198.5,1268.6 1177.3,1266.4 1174,1298 1208.4,1301 1232.7,1281.2 			"/>
			<rect x="1186.4" y="1277.3" class="st7" width="31" height="10.9"/>
			<text transform="matrix(1 0 0 1 1195.2606 1286.337)" class="st12 st9 st17">71</text>
		</g>
		<g id="item72">
			<polygon class="st22" points="1144.2,1250 1156,1264.4 1177.3,1266.4 1174.4,1298 1140,1294.3 1120,1270.2 			"/>
			<rect x="1138.4" y="1275.6" class="st7" width="31" height="10.9"/>
			<text transform="matrix(1 0 0 1 1147.2611 1284.6555)" class="st12 st9 st17">72</text>
		</g>
		<g id="item92">
			<polygon class="st22" points="817,1114.4 817,1083 848.3,1083 873.3,1108.1 851.2,1130 835.4,1114.4 			"/>
			<rect x="823.3" y="1096.1" class="st7" width="31" height="10.9"/>
			<text transform="matrix(1 0 0 1 832.143 1105.1355)" class="st12 st9 st17">92</text>
		</g>
	</g>
	<g id="POOLE">
		<g id="item01">
			<rect x="631.9" y="468.1" class="st23" width="32.3" height="51.5"/>
			<rect x="632.1" y="489.5" class="st7" width="32.3" height="10.9"/>
			<text transform="matrix(1 0 0 1 641.8575 498.526)" class="st12 st9 st17">0</text>
			<text transform="matrix(1 0 0 1 648.0575 498.526)" class="st12 st9 st17">1</text>
		</g>
		<g id="item13">
			
				<rect x="1188" y="213.9" transform="matrix(0.7409 -0.6716 0.6716 0.7409 159.7533 874.6249)" class="st23" width="51" height="32.7"/>
			<rect x="1199.8" y="223.5" class="st7" width="31" height="10.9"/>
			<text transform="matrix(1 0 0 1 1208.7021 232.5715)" class="st12 st9 st17">1</text>
			<text transform="matrix(1 0 0 1 1215.1022 232.5715)" class="st12 st9 st17">3</text>
		</g>
		<g id="item19">
			
				<rect x="1266.2" y="764.9" transform="matrix(0.7733 -0.634 0.634 0.7733 -202.2723 995.8007)" class="st23" width="50.6" height="31.8"/>
			<rect x="1276.8" y="773.8" class="st7" width="31" height="10.9"/>
			<text transform="matrix(1 0 0 1 1285.7386 782.8009)" class="st12 st9 st17">1</text>
			<text transform="matrix(1 0 0 1 1292.1387 782.8009)" class="st12 st9 st17">9</text>
		</g>
		<g id="item36">
			
				<rect x="1091.6" y="499.1" transform="matrix(0.7673 -0.6413 0.6413 0.7673 -78.6705 832.387)" class="st23" width="32" height="51"/>
			<rect x="1093" y="519.1" class="st7" width="31" height="10.9"/>
			<text transform="matrix(1 0 0 1 1101.7814 528.1733)" class="st12 st9 st17">36</text>
		</g>
		<g id="item53">
			
				<rect x="1021.3" y="1130" transform="matrix(0.7733 -0.634 0.634 0.7733 -497.4074 919.8237)" class="st23" width="32.8" height="51"/>
			<rect x="1022.9" y="1150.8" class="st7" width="31" height="10.9"/>
			<text transform="matrix(1 0 0 1 1031.7015 1159.8566)" class="st12 st9 st17">53</text>
		</g>
		<g id="item95">
			<rect x="565" y="1081.5" class="st23" width="50.8" height="32"/>
			<rect x="573.9" y="1093.5" class="st7" width="31" height="10.9"/>
			<text transform="matrix(1 0 0 1 582.7502 1102.496)" class="st12 st9 st17">95</text>
		</g>
		<g id="item99">
			<rect x="628.2" y="1269" class="st23" width="33.4" height="51.2"/>
			<rect x="629" y="1290.2" class="st7" width="31" height="10.9"/>
			<text transform="matrix(1 0 0 1 637.8621 1299.2954)" class="st12 st9 st17">99</text>
		</g>
	</g>
	<g id="TILLEY">
		<g id="item03">
			<rect x="730.8" y="464.3" class="st24" width="26.8" height="50.1"/>
			<rect x="730.7" y="485.4" class="st7" width="26.7" height="10.9"/>
			<text transform="matrix(1 0 0 1 737.7056 494.4509)" class="st16 st9 st17">0</text>
			<text transform="matrix(1 0 0 1 743.9056 494.4509)" class="st16 st9 st17">3</text>
		</g>
		<g id="item04">
			<rect x="757.5" y="464.3" class="st24" width="26.8" height="50.1"/>
			<rect x="757.3" y="485.4" class="st7" width="26.7" height="10.9"/>
			<text transform="matrix(1 0 0 1 764.2214 494.4509)" class="st16 st9 st17">0</text>
			<text transform="matrix(1 0 0 1 770.4214 494.4509)" class="st16 st9 st17">4</text>
		</g>
		<g id="item12">
			
				<rect x="1166" y="189.8" transform="matrix(0.7409 -0.6716 0.6716 0.7409 170.2464 853.6315)" class="st24" width="51" height="32.7"/>
			<rect x="1177.9" y="203.1" class="st7" width="31" height="10.9"/>
			<text transform="matrix(1 0 0 1 1186.8605 212.1106)" class="st16 st9 st17">1</text>
			<text transform="matrix(1 0 0 1 1193.2605 212.1106)" class="st16 st9 st17">2</text>
		</g>
		<g id="item16">
			
				<rect x="1201.4" y="662.4" transform="matrix(0.7733 -0.634 0.634 0.7733 -150.6585 931.002)" class="st24" width="50.6" height="27.6"/>
			<rect x="1211.4" y="671.5" class="st7" width="31" height="10.9"/>
			<text transform="matrix(1 0 0 1 1220.3419 680.5223)" class="st16 st9 st17">1</text>
			<text transform="matrix(1 0 0 1 1226.7419 680.5223)" class="st16 st9 st17">6</text>
		</g>
		<g id="item17">
			
				<rect x="1218.3" y="683.9" transform="matrix(0.7733 -0.634 0.634 0.7733 -159.9302 946.4572)" class="st24" width="50.6" height="26"/>
			<rect x="1228.8" y="691.1" class="st7" width="31" height="10.9"/>
			<text transform="matrix(1 0 0 1 1237.7076 700.1405)" class="st16 st9 st17">1</text>
			<text transform="matrix(1 0 0 1 1244.1077 700.1405)" class="st16 st9 st17">7</text>
		</g>
		<g id="item96">
			<rect x="565" y="1113.5" class="st24" width="50.8" height="26.2"/>
			<rect x="573.5" y="1121.4" class="st7" width="31" height="10.9"/>
			<text transform="matrix(1 0 0 1 582.3637 1130.455)" class="st16 st9 st17">96</text>
		</g>
		<g id="item97">
			<rect x="565" y="1139.7" class="st24" width="50.8" height="26.2"/>
			<rect x="572.9" y="1147.9" class="st7" width="31" height="10.9"/>
			<text transform="matrix(1 0 0 1 581.7044 1156.9163)" class="st16 st9 st17">97</text>
		</g>
	</g>
	<g id="TAYLOR">
		<g id="item46">
			<rect x="683.3" y="946" class="st25" width="52.5" height="37.5"/>
			<g>
				<rect x="693.5" y="961.1" class="st7" width="31" height="10.9"/>
				<text transform="matrix(1 0 0 1 702.3122 970.1957)" class="st16 st9 st17">46</text>
			</g>
		</g>
		<g id="item47">
			<rect x="753.3" y="946" class="st25" width="52.5" height="37.5"/>
			<g>
				<rect x="763.9" y="961.1" class="st7" width="31" height="10.9"/>
				<text transform="matrix(1 0 0 1 772.7551 970.1957)" class="st16 st9 st17">47</text>
			</g>
		</g>
	</g>
	<g id="BRIDGEWATER">
		<g id="item20">
			
				<rect x="1174" y="827" transform="matrix(0.7733 -0.634 0.634 0.7733 -270.6435 949.6142)" class="st26" width="37.3" height="52.6"/>
			<rect x="1177.6" y="848.8" class="st7" width="31" height="10.9"/>
			<text transform="matrix(1 0 0 1 1186.382 857.8009)" class="st12 st9 st17">20</text>
		</g>
		<g id="item39">
			<rect x="770.4" y="591.1" class="st26" width="37" height="52.3"/>
			<rect x="773.2" y="613.5" class="st7" width="31" height="10.9"/>
			<text transform="matrix(1 0 0 1 781.9806 622.5109)" class="st12 st9 st17">39</text>
		</g>
		<g id="item50">
			<rect x="865.8" y="804.5" class="st26" width="52.5" height="37.5"/>
			<rect x="876.2" y="817.9" class="st7" width="31" height="10.9"/>
			<text transform="matrix(1 0 0 1 885.061 826.9768)" class="st12 st9 st17">50</text>
		</g>
		<g id="item51">
			<rect x="865.8" y="769.2" class="st26" width="52.5" height="35.3"/>
			<rect x="876.2" y="783" class="st7" width="31" height="10.9"/>
			<text transform="matrix(1 0 0 1 885.061 792.0563)" class="st12 st9 st17">51</text>
		</g>
		<g id="item52">
			<rect x="865.8" y="715" class="st26" width="52.5" height="37.4"/>
			<rect x="876.2" y="728" class="st7" width="31" height="10.9"/>
			<text transform="matrix(1 0 0 1 885.061 737.0869)" class="st12 st9 st17">52</text>
		</g>
		<g id="item64">
			<polygon class="st26" points="1422.3,1040.8 1394.4,1063.9 1427.8,1104.4 1455.7,1081.4 			"/>
			<rect x="1409.8" y="1066.4" class="st7" width="31" height="10.9"/>
			<text transform="matrix(1 0 0 1 1418.6412 1075.4949)" class="st12 st9 st17">64</text>
		</g>
		<g id="item88">
			
				<rect x="953.7" y="1253.8" transform="matrix(0.7733 -0.634 0.634 0.7733 -584.4307 909.5359)" class="st26" width="52.2" height="36.6"/>
			<rect x="965.3" y="1265.8" class="st7" width="31" height="10.9"/>
			<text transform="matrix(1 0 0 1 974.1019 1274.8833)" class="st12 st9 st17">88</text>
		</g>
		<g id="item89">
			
				<rect x="926.4" y="1220.9" transform="matrix(0.7733 -0.634 0.634 0.7733 -569.7642 884.7909)" class="st26" width="52.2" height="36.6"/>
			<rect x="937.3" y="1234.3" class="st7" width="31" height="10.9"/>
			<text transform="matrix(1 0 0 1 946.1703 1243.3308)" class="st12 st9 st17">89</text>
		</g>
		<g id="item90">
			
				<rect x="881.3" y="1166.2" transform="matrix(0.7733 -0.634 0.634 0.7733 -545.2896 843.7859)" class="st26" width="52.2" height="36.6"/>
			<rect x="892" y="1178.9" class="st7" width="31" height="10.9"/>
			<text transform="matrix(1 0 0 1 900.7805 1187.9373)" class="st12 st9 st17">90</text>
		</g>
		<g id="item91">
			
				<rect x="846.4" y="1124.4" transform="matrix(0.7733 -0.634 0.634 0.7733 -526.6857 812.2324)" class="st26" width="52.2" height="36.6"/>
			<rect x="855.9" y="1137.6" class="st7" width="31" height="10.9"/>
			<text transform="matrix(1 0 0 1 864.7792 1146.657)" class="st12 st9 st17">91</text>
		</g>
	</g>
	<g id="HIPKINS">
		<g id="item02">
			<rect x="664.2" y="468.1" class="st27" width="32.3" height="51.5"/>
			<rect x="664.2" y="489.5" class="st7" width="32.3" height="10.9"/>
			<text transform="matrix(1 0 0 1 673.8724 498.526)" class="st16 st9 st17">0</text>
			<text transform="matrix(1 0 0 1 680.0724 498.526)" class="st16 st9 st17">2</text>
		</g>
		<g id="item05">
			<rect x="818.4" y="458" class="st27" width="32.4" height="50.8"/>
			<rect x="819.8" y="479.2" class="st7" width="31" height="10.9"/>
			<text transform="matrix(1 0 0 1 828.935 488.2257)" class="st16 st9 st17">0</text>
			<text transform="matrix(1 0 0 1 835.135 488.2257)" class="st16 st9 st17">5</text>
		</g>
		<g id="item06">
			<rect x="850.8" y="458" class="st27" width="32.4" height="50.8"/>
			<rect x="851.1" y="479.2" class="st7" width="31" height="10.9"/>
			<text transform="matrix(1 0 0 1 860.1728 488.2257)" class="st16 st9 st17">0</text>
			<text transform="matrix(1 0 0 1 866.3728 488.2257)" class="st16 st9 st17">6</text>
		</g>
		<g id="item08">
			
				<rect x="980.4" y="423" transform="matrix(0.7673 -0.6413 0.6413 0.7673 -55.6924 743.5353)" class="st27" width="32.5" height="51"/>
			<rect x="981.2" y="443" class="st7" width="31" height="10.9"/>
			<text transform="matrix(1 0 0 1 990.236 452.0731)" class="st16 st9 st17">0</text>
			<text transform="matrix(1 0 0 1 996.4359 452.0731)" class="st16 st9 st17">8</text>
		</g>
		<g id="item09">
			
				<rect x="1005.5" y="402.1" transform="matrix(0.7673 -0.6413 0.6413 0.7673 -36.4596 754.7657)" class="st27" width="32.5" height="51"/>
			<rect x="1006.2" y="423" class="st7" width="31" height="10.9"/>
			<text transform="matrix(1 0 0 1 1015.2572 432.0594)" class="st16 st9 st17">0</text>
			<text transform="matrix(1 0 0 1 1021.4572 432.0594)" class="st16 st9 st17">9</text>
		</g>
		<g id="item18">
			
				<rect x="1246" y="740.3" transform="matrix(0.7733 -0.634 0.634 0.7733 -191.2694 977.4194)" class="st27" width="50.6" height="31.8"/>
			<rect x="1256.1" y="748.7" class="st7" width="31" height="10.9"/>
			<text transform="matrix(1 0 0 1 1265.0675 757.7809)" class="st16 st9 st17">1</text>
			<text transform="matrix(1 0 0 1 1271.4675 757.7809)" class="st16 st9 st17">8</text>
		</g>
		<g id="item30">
			<rect x="999.3" y="780.3" class="st27" width="51.3" height="32.4"/>
			<rect x="1009.5" y="790.5" class="st7" width="31" height="10.9"/>
			<text transform="matrix(1 0 0 1 1018.3474 799.5554)" class="st16 st9 st17">30</text>
		</g>
		<g id="item31">
			<rect x="999.3" y="748" class="st27" width="51.3" height="32.4"/>
			<rect x="1010" y="761.4" class="st7" width="31" height="10.9"/>
			<text transform="matrix(1 0 0 1 1018.8602 770.4708)" class="st16 st9 st17">31</text>
		</g>
		<g id="item32">
			<rect x="999.3" y="681.5" class="st27" width="51.3" height="32.4"/>
			<rect x="1008.5" y="692.5" class="st7" width="31" height="10.9"/>
			<text transform="matrix(1 0 0 1 1017.3612 701.5309)" class="st16 st9 st17">32</text>
		</g>
		<g id="item33">
			<rect x="999.3" y="649.1" class="st27" width="51.3" height="32.4"/>
			<rect x="1008.5" y="663.6" class="st7" width="31" height="10.9"/>
			<text transform="matrix(1 0 0 1 1017.3612 672.6547)" class="st16 st9 st17">33</text>
		</g>
		<g id="item35">
			
				<rect x="1067.1" y="519.6" transform="matrix(0.7673 -0.6413 0.6413 0.7673 -97.5182 821.4455)" class="st27" width="32" height="51"/>
			<rect x="1068.5" y="539.1" class="st7" width="31" height="10.9"/>
			<text transform="matrix(1 0 0 1 1077.3004 548.1708)" class="st16 st9 st17">35</text>
		</g>
		<g id="item42">
			<rect x="675.3" y="709.6" class="st27" width="51.3" height="32.2"/>
			<rect x="684.7" y="722.5" class="st7" width="31" height="10.9"/>
			<text transform="matrix(1 0 0 1 693.5404 731.5659)" class="st16 st9 st17">42</text>
		</g>
		<g id="item43">
			<rect x="675.3" y="741.9" class="st27" width="51.3" height="32.2"/>
			<rect x="685.7" y="751.3" class="st7" width="31" height="10.9"/>
			<text transform="matrix(1 0 0 1 694.5615 760.3723)" class="st16 st9 st17">43</text>
		</g>
		<g id="item44">
			<rect x="675.3" y="808.1" class="st27" width="51.3" height="32.2"/>
			<rect x="685.3" y="819.2" class="st7" width="31" height="10.9"/>
			<text transform="matrix(1 0 0 1 694.0814 828.2509)" class="st16 st9 st17">44</text>
		</g>
		<g id="item45">
			<rect x="675.3" y="840.3" class="st27" width="51.3" height="32.2"/>
			<rect x="684.7" y="850.2" class="st7" width="31" height="10.9"/>
			<text transform="matrix(1 0 0 1 693.5404 859.1959)" class="st16 st9 st17">45</text>
		</g>
		<g id="item54">
			
				<rect x="1059.7" y="1098.1" transform="matrix(0.7733 -0.634 0.634 0.7733 -468.4777 936.9434)" class="st27" width="32.8" height="51"/>
			<rect x="1061.4" y="1120.3" class="st7" width="31" height="10.9"/>
			<text transform="matrix(1 0 0 1 1070.1874 1129.3763)" class="st16 st9 st17">54</text>
		</g>
		<g id="item55">
			
				<rect x="1085" y="1077.4" transform="matrix(0.7733 -0.634 0.634 0.7733 -449.5675 948.3331)" class="st27" width="32.8" height="51"/>
			<rect x="1087.3" y="1099.3" class="st7" width="31" height="10.9"/>
			<text transform="matrix(1 0 0 1 1096.1412 1108.3767)" class="st16 st9 st17">55</text>
		</g>
		<g id="item65">
			
				<rect x="1364.3" y="1082.6" transform="matrix(0.7733 -0.634 0.634 0.7733 -389.7405 1126.3766)" class="st27" width="32" height="51.3"/>
			<rect x="1364.9" y="1103.6" class="st7" width="31" height="10.9"/>
			<text transform="matrix(1 0 0 1 1373.701 1112.6956)" class="st16 st9 st17">65</text>
		</g>
		<g id="item66">
			
				<rect x="1339.4" y="1103" transform="matrix(0.7733 -0.634 0.634 0.7733 -408.328 1115.2085)" class="st27" width="32" height="51.3"/>
			<rect x="1339.6" y="1123.4" class="st7" width="31" height="10.9"/>
			<text transform="matrix(1 0 0 1 1348.4296 1132.4237)" class="st16 st9 st17">66</text>
		</g>
		<g id="item67">
			
				<rect x="1314.7" y="1123.3" transform="matrix(0.7733 -0.634 0.634 0.7733 -426.8353 1104.1146)" class="st27" width="32" height="51.3"/>
			<rect x="1316.1" y="1143.9" class="st7" width="31" height="10.9"/>
			<text transform="matrix(1 0 0 1 1324.9215 1152.8962)" class="st16 st9 st17">67</text>
		</g>
		<g id="item68">
			
				<rect x="1285.6" y="1148.2" transform="matrix(0.7733 -0.634 0.634 0.7733 -449.1901 1091.29)" class="st27" width="32" height="51.3"/>
			<rect x="1286.4" y="1169.8" class="st7" width="31" height="10.9"/>
			<text transform="matrix(1 0 0 1 1295.2235 1178.8153)" class="st16 st9 st17">68</text>
		</g>
		<g id="item69">
			
				<rect x="1260.6" y="1168.6" transform="matrix(0.7733 -0.634 0.634 0.7733 -467.7776 1080.1219)" class="st27" width="32" height="51.3"/>
			<rect x="1258.9" y="1188" class="st7" width="31" height="10.9"/>
			<text transform="matrix(1 0 0 1 1267.7374 1197.0548)" class="st16 st9 st17">69</text>
		</g>
		<g id="item70">
			
				<rect x="1235.9" y="1188.9" transform="matrix(0.7733 -0.634 0.634 0.7733 -486.2849 1069.0281)" class="st27" width="32" height="51.3"/>
			<rect x="1235.9" y="1209.5" class="st7" width="31" height="10.9"/>
			<text transform="matrix(1 0 0 1 1244.7614 1218.5358)" class="st16 st9 st17">70</text>
		</g>
		<g id="item93">
			<rect x="746" y="1075.7" class="st27" width="32" height="51.1"/>
			<rect x="746.6" y="1097.8" class="st7" width="31" height="10.9"/>
			<text transform="matrix(1 0 0 1 755.4609 1106.8171)" class="st16 st9 st17">93</text>
		</g>
		<g id="item94">
			<rect x="714" y="1075.7" class="st27" width="32" height="51.1"/>
			<rect x="714.6" y="1097.9" class="st7" width="31" height="10.9"/>
			<text transform="matrix(1 0 0 1 723.4176 1106.995)" class="st16 st9 st17">94</text>
		</g>
		<g id="item100">
			<rect x="713.4" y="1219.7" class="st27" width="51.1" height="32"/>
			<rect x="724.3" y="1230.2" class="st7" width="31" height="10.9"/>
			<text transform="matrix(1 0 0 1 729.8056 1239.2954)" class="st16 st9 st17">100</text>
		</g>
		<g id="item101">
			<rect x="713.4" y="1251.7" class="st27" width="51.1" height="32"/>
			<rect x="724.3" y="1261.6" class="st7" width="31" height="10.9"/>
			<text transform="matrix(1 0 0 1 729.8056 1270.6287)" class="st16 st9 st17">101</text>
		</g>
		<g id="item102">
			<rect x="744.4" y="1296.3" class="st27" width="51.1" height="32"/>
			<rect x="755.9" y="1308.6" class="st7" width="31" height="10.9"/>
			<text transform="matrix(1 0 0 1 761.3665 1317.5959)" class="st16 st9 st17">102</text>
		</g>
		<g id="item103">
			<rect x="744.4" y="1328.3" class="st27" width="51.1" height="32"/>
			<rect x="755.9" y="1339" class="st7" width="31" height="10.9"/>
			<text transform="matrix(1 0 0 1 761.3665 1348.0162)" class="st16 st9 st17">103</text>
		</g>
	</g>
	<g id="PARKER">
		<g id="item21">
			<g>
				<polygon class="st28" points="1023.9,975.9 1051.1,1008.6 1055.6,1004.8 1057.2,1006.8 1073.1,993.9 1071.3,991.9 1093.4,973.5 
					1066.3,940.9 1028.8,971.9 				"/>
				<polygon class="st28" points="1066.3,940.9 1093.4,973.5 1115.5,955.2 1117.2,957.1 1132.8,944.2 1131.2,942.2 1135.7,938.6 
					1108.5,905.7 				"/>
				<polygon class="st28" points="1017.1,957.5 1028.8,971.9 1074.4,934.1 1062.4,919.7 				"/>
				<polygon class="st28" points="1062.4,919.7 1048.8,903.3 1038.9,911.6 1026.1,896.1 1010.6,908.9 1009,906.9 993.3,919.9 
					994.9,921.9 990.4,925.6 1017.1,957.5 				"/>
			</g>
			<rect x="1035.4" y="950.4" class="st7" width="42.7" height="10.4"/>
			<text transform="matrix(1 0 0 1 1038.1573 959.469)" class="st12 st9 st17">21 - 29</text>
		</g>
	</g>
</g>
<g id="Layer_2">
	<circle class="st29" cx="1365.5" cy="679.7" r="19.9"/>
	<circle class="st29" cx="1202.4" cy="313.1" r="19.9"/>
	<circle class="st29" cx="1384.9" cy="710.5" r="19.9"/>
	<circle class="st29" cx="1412.5" cy="738.5" r="19.9"/>
	<circle class="st29" cx="1462.4" cy="803.5" r="19.9"/>
	<circle class="st29" cx="1499.5" cy="853.5" r="19.9"/>
	<circle class="st29" cx="1543.4" cy="917.5" r="19.9"/>
	<circle class="st29" cx="1490.4" cy="978.5" r="19.9"/>
	<circle class="st29" cx="1518.5" cy="1019.5" r="19.9"/>
	<circle class="st29" cx="1568" cy="957.6" r="19.9"/>
	<circle class="st29" cx="1593.7" cy="990.6" r="19.9"/>
	<circle class="st29" cx="1634.2" cy="1046.6" r="13.8"/>
	<circle class="st29" cx="1389.7" cy="990.6" r="13.8"/>
	<circle class="st29" cx="1325.9" cy="954.6" r="13.8"/>
	<circle class="st29" cx="1289.5" cy="906.6" r="13.8"/>
	<circle class="st29" cx="1064.8" cy="863.1" r="13.8"/>
	<circle class="st29" cx="1189.9" cy="783.6" r="13.8"/>
	<circle class="st29" cx="1164.4" cy="768.6" r="13.8"/>
	<circle class="st29" cx="1136.7" cy="732.6" r="13.8"/>
	<circle class="st29" cx="1124.4" cy="687.6" r="13.8"/>
	<circle class="st29" cx="1126.7" cy="642.6" r="13.8"/>
	<circle class="st29" cx="804.3" cy="703.6" r="13.8"/>
	<circle class="st29" cx="791.4" cy="746.1" r="13.8"/>
	<circle class="st29" cx="802.3" cy="795.6" r="13.8"/>
	<circle class="st29" cx="804.3" cy="856.6" r="13.8"/>
	<circle class="st29" cx="777.6" cy="1008.6" r="13.8"/>
	<circle class="st29" cx="725" cy="1008.6" r="13.8"/>
	<circle class="st29" cx="729" cy="1049.6" r="13.8"/>
	<circle class="st29" cx="768.9" cy="1050.6" r="13.8"/>
	<circle class="st29" cx="825.5" cy="1049.6" r="13.8"/>
	<circle class="st29" cx="667.1" cy="1050.6" r="13.8"/>
	<circle class="st29" cx="621.6" cy="1049.1" r="13.8"/>
	<circle class="st29" cx="620.5" cy="1207.6" r="13.8"/>
	<circle class="st29" cx="669.1" cy="1212.6" r="13.8"/>
	<circle class="st29" cx="791.4" cy="1187.1" r="13.8"/>
	<circle class="st29" cx="831.2" cy="1242.6" r="13.8"/>
	<circle class="st29" cx="872.9" cy="1266.6" r="13.8"/>
	<circle class="st29" cx="866" cy="1346.1" r="13.8"/>
	<circle class="st29" cx="867.6" cy="1410.6" r="13.8"/>
	<circle class="st29" cx="961.3" cy="1343.1" r="13.8"/>
	<circle class="st29" cx="1083.2" cy="1238.1" r="13.8"/>
	<circle class="st29" cx="1156" cy="1184.1" r="13.8"/>
	<circle class="st29" cx="1265.7" cy="1076.6" r="13.8"/>
	<circle class="st29" cx="1308.2" cy="1053.6" r="13.8"/>
	<circle class="st29" cx="1016" cy="1815.6" r="13.8"/>
	<circle class="st29" cx="867.6" cy="1805.1" r="13.8"/>
	<circle class="st29" cx="867.6" cy="1766.1" r="13.8"/>
	<circle class="st29" cx="867.6" cy="1677.6" r="13.8"/>
	<circle class="st29" cx="869.9" cy="1626.6" r="13.8"/>
	<circle class="st29" cx="866" cy="1545.6" r="13.8"/>
	<circle class="st29" cx="707.7" cy="1374.6" r="13.8"/>
	<circle class="st29" cx="620.5" cy="1366.6" r="13.8"/>
	<circle class="st29" cx="546.8" cy="1367.6" r="13.8"/>
	<circle class="st29" cx="482.4" cy="1157.1" r="13.8"/>
	<circle class="st29" cx="482.4" cy="1119.6" r="13.8"/>
	<circle class="st29" cx="345.1" cy="798.6" r="13.8"/>
	<circle class="st29" cx="346.8" cy="753.6" r="13.8"/>
	<circle class="st29" cx="338.5" cy="1151.1" r="13.8"/>
	<circle class="st29" cx="305.2" cy="1062.6" r="13.8"/>
	<circle class="st29" cx="333.1" cy="991.6" r="13.8"/>
	<circle class="st29" cx="212.8" cy="990.6" r="13.8"/>
	<circle class="st29" cx="1678.3" cy="1122.1" r="13.8"/>
	<circle class="st29" cx="1792.2" cy="1258.6" r="13.8"/>
	<circle class="st29" cx="1837.2" cy="1315.6" r="13.8"/>
	<circle class="st29" cx="1879" cy="1376" r="13.8"/>
	<circle class="st29" cx="1738.2" cy="1186.6" r="13.8"/>
	<circle class="st29" cx="1662.2" cy="1083.6" r="19.9"/>
	<circle class="st29" cx="1602.6" cy="1193.1" r="19.9"/>
	<circle class="st29" cx="1553.2" cy="1236.1" r="19.9"/>
	<circle class="st29" cx="1598.8" cy="1239.1" r="19.9"/>
	<circle class="st29" cx="1619.8" cy="1283.1" r="19.9"/>
	<circle class="st29" cx="1576.2" cy="1281.6" r="19.9"/>
	<circle class="st29" cx="1531" cy="1272.1" r="19.9"/>
	<circle class="st29" cx="1620.5" cy="1331.6" r="19.9"/>
	<circle class="st29" cx="1486.3" cy="1278.1" r="19.9"/>
	<circle class="st29" cx="1436.4" cy="1285.6" r="19.9"/>
	<circle class="st29" cx="1401.7" cy="1319.6" r="19.9"/>
	<circle class="st29" cx="1468.5" cy="1325.1" r="19.9"/>
	<circle class="st29" cx="1521.9" cy="1311.6" r="19.9"/>
	<circle class="st29" cx="1729" cy="1359.1" r="19.9"/>
	<circle class="st29" cx="1708.5" cy="1408.1" r="19.9"/>
	<circle class="st29" cx="1759.5" cy="1406.1" r="19.9"/>
	<circle class="st29" cx="1505.3" cy="1591.6" r="29.8"/>
	<circle class="st29" cx="1482.5" cy="1657.6" r="29.8"/>
	<circle class="st29" cx="1417" cy="1644.6" r="29.8"/>
	<circle class="st29" cx="1396.8" cy="1707.6" r="29.8"/>
	<circle class="st29" cx="1335.3" cy="1727.6" r="29.8"/>
	<circle class="st29" cx="1840" cy="1358.6" r="19.9"/>
	<circle class="st29" cx="1788.5" cy="1298.6" r="19.9"/>
	<circle class="st29" cx="1769" cy="1223.6" r="19.9"/>
	<circle class="st29" cx="1711" cy="1154.1" r="19.9"/>
	<circle class="st29" cx="1288.3" cy="1407.6" r="19.9"/>
	<circle class="st29" cx="1295.4" cy="1365.6" r="19.9"/>
	<circle class="st29" cx="1237" cy="1417.1" r="19.9"/>
	<circle class="st29" cx="1268.2" cy="1447.1" r="19.9"/>
	<circle class="st29" cx="1175.3" cy="1325.6" r="19.9"/>
	<circle class="st29" cx="1187.4" cy="1436.6" r="19.9"/>
	<circle class="st29" cx="997" cy="1111.1" r="19.9"/>
	<circle class="st29" cx="1006.8" cy="1013.1" r="19.9"/>
	<circle class="st29" cx="917.4" cy="983.1" r="19.9"/>
	<circle class="st29" cx="911.5" cy="1071.6" r="19.9"/>
	<circle class="st29" cx="550.5" cy="984.6" r="19.9"/>
	<circle class="st29" cx="592.2" cy="942.6" r="19.9"/>
	<circle class="st29" cx="592.2" cy="762.6" r="19.9"/>
	<circle class="st29" cx="593.1" cy="576.6" r="19.9"/>
	<circle class="st29" cx="679.1" cy="597.6" r="19.9"/>
	<circle class="st29" cx="922.8" cy="585.6" r="19.9"/>
	<circle class="st29" cx="296.5" cy="989.1" r="19.9"/>
	<circle class="st29" cx="256.6" cy="989.1" r="19.9"/>
	<circle class="st29" cx="1150.8" cy="1469.1" r="19.9"/>
	<circle class="st29" cx="1120" cy="1506.6" r="19.9"/>
	<circle class="st29" cx="1162.4" cy="1523.1" r="19.9"/>
	<circle class="st29" cx="1176.8" cy="1717.6" r="19.9"/>
	<circle class="st29" cx="1138.7" cy="1684.6" r="19.9"/>
	<circle class="st29" cx="1104.3" cy="1713.1" r="19.9"/>
	<circle class="st29" cx="1133.3" cy="1744.6" r="19.9"/>
	<circle class="st29" cx="1103.7" cy="1783.1" r="19.9"/>
	<circle class="st29" cx="1136.7" cy="1816.6" r="19.9"/>
	<circle class="st29" cx="1225.6" cy="1623.1" r="19.9"/>
	<circle class="st29" cx="1234.6" cy="1584.1" r="19.9"/>
	<circle class="st29" cx="1252.2" cy="1543.6" r="19.9"/>
</g>
</svg>
