<?xml version="1.0" encoding="utf-8"?>
<!-- Generator: Adobe Illustrator 18.0.0, SVG Export Plug-In . SVG Version: 6.00 Build 0)  -->
<!DOCTYPE svg PUBLIC "-//W3C//DTD SVG 1.1//EN" "http://www.w3.org/Graphics/SVG/1.1/DTD/svg11.dtd">
<svg version="1.1" id="HtB_x5F_CMYK_x5F_Drk_x5F_Strap"
	 xmlns="http://www.w3.org/2000/svg" xmlns:xlink="http://www.w3.org/1999/xlink" x="0px" y="0px" viewBox="0 0 226.8 226.8"
	 enable-background="new 0 0 226.8 226.8" xml:space="preserve">
<g>
	<path fill="#FFFFFF" d="M198.6,113.4c0,47.1-38.2,85.2-85.2,85.2c-47.1,0-85.2-38.2-85.2-85.2c0-47.1,38.2-85.2,85.2-85.2
		C160.5,28.1,198.6,66.3,198.6,113.4"/>
	<g id="XMLID_1_">
		<g>
			<path fill="#FFFFFF" d="M113.4,30.1c45.9,0,83.3,37.4,83.3,83.3c0,45.9-37.4,83.3-83.3,83.3c-45.9,0-83.3-37.4-83.3-83.3
				C30.1,67.4,67.5,30.1,113.4,30.1z"/>
			<path fill="#006367" d="M113.4,26.1c48.1,0,87.3,39.2,87.3,87.3c0,48.1-39.2,87.3-87.3,87.3c-48.1,0-87.3-39.2-87.3-87.3
				C26.1,65.3,65.3,26.1,113.4,26.1z M196.6,113.4c0-45.9-37.4-83.3-83.3-83.3c-45.9,0-83.3,37.3-83.3,83.3
				c0,45.9,37.3,83.3,83.3,83.3C159.3,196.7,196.6,159.3,196.6,113.4z"/>
		</g>
		<g>
		</g>
	</g>
	<g>
		<path fill="#006367" d="M108,59.7h-7.5v4.2L108,72V59.7z M88.5,94.3v29.6h-1.2H66.6h-2.1v-3.2V94.3h-6.8l-2.2-5.1l30.7-32.8
			l2.2-2.3l2.2,2.3l30.7,32.8l-2.2,5.1h-7H88.5z"/>
		<polygon fill="#006367" points="107.2,123.9 107.2,113.5 98.7,113.5 98.7,123.9 92,123.9 92,97.8 98.7,97.8 98.7,107.7 
			107.2,107.7 107.2,97.8 113.9,97.8 113.9,123.9 		"/>
		<path fill="#009394" d="M126.9,108.6c-2.1,0-4,1.2-4.4,3.3h8.9C130.9,109.9,129,108.6,126.9,108.6 M137,115.9h-14.7
			c0.4,2.3,2.3,3.7,4.6,3.7c1.6,0,2.6-0.6,3.6-1.8h6c-1.7,3.9-5.2,6.8-9.5,6.8c-5.7,0-10.3-4.7-10.3-10.3s4.5-10.5,10.3-10.5
			c6,0,10.3,4.8,10.3,10.7C137.2,114.9,137.2,115.4,137,115.9"/>
		<rect x="139.7" y="97.8" fill="#009394" width="5.9" height="26.1"/>
		<path fill="#009394" d="M159.3,109.1c-2.8,0-4.9,2.2-4.9,5c0,2.8,2.1,5,4.9,5c2.8,0,4.9-2.2,4.9-5
			C164.2,111.4,162.1,109.1,159.3,109.1 M160.6,124.6c-2.3,0-4.3-0.7-5.9-2.5v8.3h-5.9v-26.1h5.5v2.2h0.1h0.1
			c1.5-1.9,3.7-2.8,6.1-2.8c6,0,9.5,5,9.5,10.7C170,119.8,166.2,124.6,160.6,124.6"/>
		<polygon fill="#009394" points="73.3,140.4 73.3,155.6 67.4,155.6 67.4,140.4 64.5,140.4 64.5,136 67.4,136 67.4,129.5 
			73.3,129.5 73.3,136 76.1,136 76.1,140.4 		"/>
		<path fill="#009394" d="M87.1,140.8c-2.7,0-4.7,2.3-4.7,4.9c0,2.6,2,4.9,4.7,4.9c2.7,0,4.7-2.3,4.7-4.9
			C91.8,143.1,89.9,140.8,87.1,140.8 M87.1,156.1c-6,0-10.5-4.4-10.5-10.4c0-6,4.6-10.4,10.5-10.4s10.5,4.4,10.5,10.4
			C97.7,151.8,93.1,156.1,87.1,156.1"/>
		<path fill="#009394" d="M117,144.6h-3.8v5.5h3.8c1.9,0,3.6-0.7,3.6-2.9C120.5,145,118.7,144.6,117,144.6 M116.2,134.9h-3.1v4.9
			h3.1c1.7,0,3.2-0.5,3.2-2.5C119.3,135.3,117.8,134.9,116.2,134.9 M124,153.3c-2.7,2.3-5.2,2.3-8.6,2.3h-8.3v-26.1h8.1
			c3.1,0,6.1,0.1,8.4,2.5c1.1,1.2,1.5,2.7,1.5,4.3c0,2.2-1.1,4.2-3,5.2c2.8,1,4.3,3.1,4.3,6C126.4,149.7,125.7,151.9,124,153.3"/>
		<path fill="#009394" d="M141.2,155.6v-2.1H141c-1,2.1-2.9,2.7-5.1,2.7c-2.2,0-4.3-0.7-5.7-2.5c-1.6-2-1.8-3.6-1.8-6V136h5.9v10.8
			c0,2.2,0.5,3.9,3.1,3.9c2.4,0,3.3-1.7,3.3-4V136h5.9v19.6H141.2z"/>
		<polygon fill="#009394" points="158.6,162.1 152.4,162.1 155.5,154.6 148.2,136 154.5,136 158.4,147.3 158.5,147.3 162.2,136 
			168.4,136 		"/>
	</g>
	<path fill="#009394" d="M113.4,36.2c-42.6,0-77.2,34.6-77.2,77.2s34.6,77.2,77.2,77.2s77.2-34.6,77.2-77.2
		C190.6,70.8,155.9,36.2,113.4,36.2z M113.4,186.5c-40.4,0-73.2-32.8-73.2-73.2S73,40.2,113.4,40.2s73.1,32.7,73.1,73.1
		S153.8,186.5,113.4,186.5z"/>
</g>
</svg>
