<?xml version="1.0" encoding="utf-8"?>
<!-- Generator: Adobe Illustrator 18.0.0, SVG Export Plug-In . SVG Version: 6.00 Build 0)  -->
<!DOCTYPE svg PUBLIC "-//W3C//DTD SVG 1.1//EN" "http://www.w3.org/Graphics/SVG/1.1/DTD/svg11.dtd">
<svg version="1.1" id="Layer_1" xmlns="http://www.w3.org/2000/svg" xmlns:xlink="http://www.w3.org/1999/xlink" x="0px" y="0px"
	 viewBox="0 0 1440 962" enable-background="new 0 0 1440 962" xml:space="preserve">
<rect fill="#47433F" width="1440" height="962"/>
<g>
	<defs>
		<rect id="SVGID_1_" width="1440" height="962"/>
	</defs>
	<clipPath id="SVGID_2_">
		<use xlink:href="#SVGID_1_"  overflow="visible"/>
	</clipPath>
	<path clip-path="url(#SVGID_2_)" fill="#85B09A" d="M2668.2,134.9c39.9,98.3,61.6,201.6,65.3,307.4h-379.9
		c-7.4-123-57.9-243.8-151.6-337.6c-80.6-80.6-185.3-132.5-297.6-148l0-204l379.4-379.4v319.6l15.2,9.2
		c62,37.4,119.6,82.6,171.3,134.3C2556.1-77.7,2622.7,22.8,2668.2,134.9 M2668.2,813c-45.5,112.1-112.1,212.5-198,298.5
		c-51.7,51.7-109.3,96.9-171.3,134.3l-15.2,9.2l0,319.6l-379.4-379.4l0-172.6l0-31.4c112.3-15.5,217-67.4,297.6-148
		c93.9-93.9,144.4-214.9,151.7-338l379.9,0C2729.9,611.1,2708.1,714.5,2668.2,813 M1910.4,1634.2c-37.4,62-82.6,119.6-134.3,171.3
		c-85.9,85.9-186.3,152.6-298.5,198c-98.4,39.9-201.7,61.7-307.6,65.3l0-379.9c123.1-7.4,244-57.8,337.8-151.6
		c80.6-80.6,132.5-185.3,148-297.6l31.4,0l172.6,0l379.4,379.4l-319.6,0L1910.4,1634.2z M501.1,1805.5
		c-51.7-51.7-96.9-109.3-134.3-171.3l-9.2-15.2H37.9l379.4-379.4l204,0c15.5,112.3,67.5,217,148,297.6
		c93.8,93.8,214.8,144.3,337.8,151.6v379.9c-105.9-3.6-209.3-25.4-307.6-65.3C687.4,1958,587,1891.4,501.1,1805.5 M-21.7,1245.8
		c-62-37.4-119.6-82.6-171.3-134.3c-85.9-85.9-152.6-186.4-198-298.5c-39.9-98.4-61.7-201.9-65.3-307.8h379.6
		c7.5,127.7,60.7,246.8,151.9,338c80.6,80.6,185.3,132.5,297.6,148l0,204L-6.5,1574.6l0-319.6L-21.7,1245.8z M-391,134.9
		c45.5-112.1,112.1-212.5,198-298.5c51.7-51.7,109.3-96.9,171.3-134.3l15.2-9.2v-319.6l379.4,379.4v204
		c-112.3,15.5-217,67.5-297.6,148l0,0C-15.8,195.8-69,314.7-76.6,442.3l-379.7,0C-452.6,336.4-430.9,233.2-391,134.9 M366.7-686.4
		c37.4-62,82.6-119.6,134.3-171.3c85.9-85.9,186.3-152.6,298.5-198c98.4-39.9,201.7-61.7,307.6-65.3l0,379.9
		c-123.1,7.4-244,57.8-337.8,151.6c-80.6,80.6-132.5,185.3-148,297.6h-9.7l0,0l-194.3,0L37.9-671.2h319.6L366.7-686.4z M632.6-228.9
		l392.9,589.8L435.7-32l0-196.9h175.9H632.6z M1841.4-32l-589.8,392.9L1644.5-229h196.9V-32z M1195.3,473.9l646.2-430.4l0,860.9
		L1195.3,473.9z M1251.7,587l589.8,392.9l0,196.9l-196.9,0L1251.7,587z M1138.6,530.6l430.4,646.2l-860.9,0L1138.6,530.6z
		 M435.7,904.3l0-860.9l646.2,430.4L435.7,904.3z M435.7,1176.8V979.9L1025.5,587l-392.9,589.8l-87.2,0L435.7,1176.8z M708.1-228.9
		H1569l-430.4,646.2L708.1-228.9z M1463.4-544.9c68.8,68.8,113.8,157.7,128.8,253.1H684.9C700-387.3,745-476.1,813.8-545
		C992.9-724,1284.3-724,1463.4-544.9 M-14.8,473.9c0-122.7,47.8-238,134.5-324.8C188.5,80.3,277.4,35.3,372.9,20.3l0,907.3
		c-95.5-15.1-184.3-60-253.1-128.8C33,712-14.8,596.6-14.8,473.9 M813.8,1492.8C745,1424,700,1335.1,684.9,1239.6l907.3,0
		c-15.1,95.5-60,184.3-128.8,253.2C1284.3,1671.9,992.9,1671.9,813.8,1492.8 M2157.4,798.7c-68.8,68.8-157.7,113.8-253.2,128.8
		l0-907.3c95.5,15.1,184.3,60,253.1,128.8C2336.5,328.2,2336.5,619.6,2157.4,798.7 M1776.1-857.7c51.7,51.7,96.9,109.3,134.3,171.3
		l9.2,15.2h319.6l-379.4,379.4h-204c-15.5-112.3-67.5-217-148-297.6C1414-683.2,1293.1-733.7,1170-741l0-379.9
		c105.9,3.6,209.3,25.4,307.6,65.3C1589.7-1010.2,1690.2-943.6,1776.1-857.7 M2346.5-734h-391.7c-38.2-60.6-83.3-117-134.3-168.1
		c-91.9-91.9-199.3-163.2-319.3-211.8c-115.6-46.9-237.6-70.6-362.7-70.6c-125,0-247.1,23.8-362.7,70.6
		C656-1065.3,548.5-994,456.6-902.1c-51,51-96.1,107.5-134.3,168H-69.4l0,391.7c-60.6,38.2-117,83.3-168.1,134.3
		c-91.9,91.9-163.2,199.3-211.8,319.3c-46.9,115.6-70.6,237.6-70.6,362.7c0,125,23.8,247.1,70.7,362.7
		c48.6,119.9,119.9,227.4,211.8,319.3c51,51,107.5,96.2,168.1,134.3v391.7l391.7,0c38.2,60.6,83.3,117,134.3,168.1
		c91.9,91.9,199.3,163.2,319.3,211.8c115.6,46.9,237.6,70.7,362.7,70.7c125.1,0,247.1-23.8,362.7-70.7
		c119.9-48.6,227.4-119.9,319.3-211.8c51-51,96.2-107.5,134.3-168.1l391.7,0l0-391.7c60.6-38.2,117-83.3,168.1-134.3
		c91.9-91.9,163.2-199.3,211.8-319.3c46.9-115.6,70.7-237.7,70.7-362.7c0-125-23.8-247.1-70.7-362.7
		C2677.8-8.7,2606.5-116.1,2514.6-208c-51-51-107.5-96.2-168.1-134.3V-734z"/>
</g>
<text transform="matrix(1 0 0 1 524.2588 438.3623)"><tspan x="0" y="0" fill="#FFFFFF" font-family="'Didot-Italic'" font-size="41.1679">A C</tspan><tspan x="66.3" y="0" fill="#FFFFFF" font-family="'Didot-Italic'" font-size="41.1679">O</tspan><tspan x="97.8" y="0" fill="#FFFFFF" font-family="'Didot-Italic'" font-size="41.1679">N</tspan><tspan x="127.5" y="0" fill="#FFFFFF" font-family="'Didot-Italic'" font-size="41.1679">T</tspan><tspan x="156.3" y="0" fill="#FFFFFF" font-family="'Didot-Italic'" font-size="41.1679">E</tspan><tspan x="184.7" y="0" fill="#FFFFFF" font-family="'Didot-Italic'" font-size="41.1679">M</tspan><tspan x="220.5" y="0" fill="#FFFFFF" font-family="'Didot-Italic'" font-size="41.1679">P</tspan><tspan x="246.4" y="0" fill="#FFFFFF" font-family="'Didot-Italic'" font-size="41.1679">O</tspan><tspan x="277.6" y="0" fill="#FFFFFF" font-family="'Didot-Italic'" font-size="41.1679" letter-spacing="2">R</tspan><tspan x="306.6" y="0" fill="#FFFFFF" font-family="'Didot-Italic'" font-size="41.1679" letter-spacing="2">A</tspan><tspan x="338.8" y="0" fill="#FFFFFF" font-family="'Didot-Italic'" font-size="41.1679">R</tspan><tspan x="364.8" y="0" fill="#FFFFFF" font-family="'Didot-Italic'" font-size="41.1679">Y </tspan></text>
<text transform="matrix(1 0 0 1 925.6211 438.3623)" fill="#FFFFFF" font-family="'Didot-Italic'" font-size="41.1679"> </text>
<text transform="matrix(1 0 0 1 462.1499 489.8223)"><tspan x="0" y="0" fill="#FFFFFF" font-family="'Didot-Italic'" font-size="41.1679">C</tspan><tspan x="26.7" y="0" fill="#FFFFFF" font-family="'Didot-Italic'" font-size="41.1679">O</tspan><tspan x="57.8" y="0" fill="#FFFFFF" font-family="'Didot-Italic'" font-size="41.1679" letter-spacing="1">LL</tspan><tspan x="112.1" y="0" fill="#FFFFFF" font-family="'Didot-Italic'" font-size="41.1679">E</tspan><tspan x="139.8" y="0" fill="#FFFFFF" font-family="'Didot-Italic'" font-size="41.1679">C</tspan><tspan x="166.4" y="0" fill="#FFFFFF" font-family="'Didot-Italic'" font-size="41.1679">T</tspan><tspan x="195.1" y="0" fill="#FFFFFF" font-family="'Didot-Italic'" font-size="41.1679" letter-spacing="-1">I</tspan><tspan x="209.8" y="0" fill="#FFFFFF" font-family="'Didot-Italic'" font-size="41.1679">O</tspan><tspan x="241.3" y="0" fill="#FFFFFF" font-family="'Didot-Italic'" font-size="41.1679">N</tspan><tspan x="270.3" y="0" fill="#FFFFFF" font-family="'Didot-Italic'" font-size="41.1679"> </tspan><tspan x="279.4" y="0" fill="#FFFFFF" font-family="'Didot-Italic'" font-size="41.1679">O</tspan><tspan x="310.5" y="0" fill="#FFFFFF" font-family="'Didot-Italic'" font-size="41.1679">F</tspan><tspan x="338" y="0" fill="#FFFFFF" font-family="'Didot-Italic'" font-size="41.1679"> </tspan><tspan x="347.2" y="0" fill="#FFFFFF" font-family="'Didot-Italic'" font-size="41.1679" letter-spacing="-1">H</tspan><tspan x="378.7" y="0" fill="#FFFFFF" font-family="'Didot-Italic'" font-size="41.1679" letter-spacing="-1">O</tspan><tspan x="409.6" y="0" fill="#FFFFFF" font-family="'Didot-Italic'" font-size="41.1679">U</tspan><tspan x="439.3" y="0" fill="#FFFFFF" font-family="'Didot-Italic'" font-size="41.1679">S</tspan><tspan x="463.6" y="0" fill="#FFFFFF" font-family="'Didot-Italic'" font-size="41.1679">E</tspan><tspan x="491.5" y="0" fill="#FFFFFF" font-family="'Didot-Italic'" font-size="41.1679">S </tspan></text>
<text transform="matrix(1 0 0 1 977.8496 489.8223)" fill="#FFFFFF" font-family="'Didot-Italic'" font-size="41.1679"> </text>
<text transform="matrix(1 0 0 1 552.4756 541.2822)"><tspan x="0" y="0" fill="#FFFFFF" font-family="'Didot-Italic'" font-size="41.1679">&amp; </tspan><tspan x="45" y="0" fill="#FFFFFF" font-family="'Didot-Italic'" font-size="41.1679" letter-spacing="2">A</tspan><tspan x="77.1" y="0" fill="#FFFFFF" font-family="'Didot-Italic'" font-size="41.1679" letter-spacing="-1">P</tspan><tspan x="101.8" y="0" fill="#FFFFFF" font-family="'Didot-Italic'" font-size="41.1679" letter-spacing="2">A</tspan><tspan x="134" y="0" fill="#FFFFFF" font-family="'Didot-Italic'" font-size="41.1679">R</tspan><tspan x="159.9" y="0" fill="#FFFFFF" font-family="'Didot-Italic'" font-size="41.1679">T</tspan><tspan x="188.8" y="0" fill="#FFFFFF" font-family="'Didot-Italic'" font-size="41.1679">M</tspan><tspan x="224.7" y="0" fill="#FFFFFF" font-family="'Didot-Italic'" font-size="41.1679">E</tspan><tspan x="253" y="0" fill="#FFFFFF" font-family="'Didot-Italic'" font-size="41.1679">N</tspan><tspan x="282.8" y="0" fill="#FFFFFF" font-family="'Didot-Italic'" font-size="41.1679">T</tspan><tspan x="310.5" y="0" fill="#FFFFFF" font-family="'Didot-Italic'" font-size="41.1679">S</tspan></text>
<g>
	<defs>
		<rect id="SVGID_3_" width="1440" height="962"/>
	</defs>
	<clipPath id="SVGID_4_">
		<use xlink:href="#SVGID_3_"  overflow="visible"/>
	</clipPath>
	<path clip-path="url(#SVGID_4_)" fill="#FFFFFF" d="M283.1,256.6c0.2-0.3,0.4-0.4,0.5-0.5c0.2-0.1,0.6-0.1,1.1-0.1h1.3v6.2
		c0,0.7,0,1.2-0.1,1.4c0,0.2-0.1,0.4-0.3,0.4c-0.1,0.1-0.4,0.1-0.8,0.1h-0.5v0.3h4.4v-0.3h-0.4c-0.4,0-0.7-0.1-0.8-0.2
		c-0.1-0.1-0.2-0.3-0.3-0.5c0-0.2,0-0.7,0-1.4v-6.2h1.4c0.5,0,0.8,0,1,0.1c0.2,0.1,0.4,0.2,0.6,0.5c0.2,0.3,0.3,0.7,0.4,1.3h0.3
		l0-2.1h-8.5l0,2.1h0.3C282.8,257.3,283,256.9,283.1,256.6 M278.4,264.8v-7.3c0-0.4,0-0.6,0.1-0.8c0.1-0.2,0.2-0.3,0.4-0.4
		c0.2-0.1,0.5-0.2,0.9-0.2v-0.3h-3.2v0.3c0.3,0,0.6,0,0.9,0.1c0.2,0.1,0.4,0.2,0.5,0.4c0.1,0.2,0.1,0.4,0.1,0.8v5.3l-5.2-6.9h-2.6
		v0.3c0.5,0,0.8,0,0.9,0.1c0.1,0.1,0.2,0.2,0.3,0.4c0.1,0.2,0.1,0.7,0.1,1.4v4.7c0,0.5,0,0.9-0.1,1c0,0.1-0.2,0.3-0.4,0.4
		c-0.2,0.1-0.5,0.2-1,0.2v0.3h3.3v-0.3c-0.5,0-0.8-0.1-1.1-0.2c-0.2-0.1-0.4-0.3-0.4-0.4c-0.1-0.2-0.1-0.5-0.1-1v-6.1l6.2,8.2H278.4
		z M266.5,263.3c-0.3,0.4-0.6,0.6-0.9,0.7c-0.3,0.1-0.7,0.2-1.1,0.2h-0.7c-0.6,0-0.9-0.1-1.1-0.3s-0.2-0.8-0.2-1.8v-2.1h1
		c0.4,0,0.6,0,0.8,0.1c0.2,0,0.3,0.2,0.4,0.3c0.1,0.2,0.1,0.5,0.1,1h0.3v-3h-0.3c0,0.4,0,0.7-0.1,0.9c-0.1,0.1-0.2,0.3-0.3,0.3
		c-0.2,0.1-0.5,0.1-0.9,0.1h-0.9v-3.7h1.2c0.6,0,1.1,0,1.3,0.1c0.3,0.1,0.5,0.2,0.7,0.5c0.2,0.3,0.4,0.7,0.5,1.3h0.3l-0.2-2.2h-6.3
		v0.3c0.4,0,0.7,0,0.8,0.1c0.1,0.1,0.2,0.2,0.3,0.4c0,0.2,0.1,0.7,0.1,1.3v4.3c0,0.7,0,1.2-0.1,1.4c0,0.2-0.1,0.3-0.2,0.4
		c-0.1,0.1-0.4,0.2-0.8,0.2H260v0.3h7.3l0.2-2.7h-0.3C267,262.5,266.8,263,266.5,263.3 M255.8,262.8c-0.3,0.5-0.7,0.9-1.2,1.2
		c-0.5,0.2-1,0.3-1.4,0.3c-0.9,0-1.6-0.4-2.2-1.1c-0.6-0.7-0.9-1.7-0.9-3c0-1.4,0.3-2.5,0.8-3.2c0.5-0.7,1.3-1.1,2.2-1.1
		c0.8,0,1.4,0.2,2,0.7c0.6,0.5,1,1.3,1.2,2.5h0.3l-0.1-3.3h-0.3c0,0.4-0.2,0.8-0.3,1.1c-0.3-0.3-0.7-0.6-1.2-0.9
		c-0.5-0.3-1.1-0.4-1.8-0.4c-0.8,0-1.5,0.2-2.2,0.6s-1.2,0.9-1.6,1.7c-0.4,0.8-0.6,1.6-0.6,2.5c0,1.3,0.4,2.4,1.2,3.2
		c0.8,0.8,1.8,1.2,3.1,1.2c1.2,0,2.2-0.4,3-1.3c0.2,0.3,0.3,0.6,0.4,0.9h0.3v-3.1h-0.3C256.3,261.8,256.1,262.3,255.8,262.8
		 M240.4,264.5c0.1-0.4,0.2-0.7,0.3-0.9c0.6,0.7,1.4,1.1,2.4,1.1c0.8,0,1.5-0.2,2-0.7s0.8-1.1,0.8-1.8c0-0.5-0.1-0.9-0.3-1.3
		c-0.2-0.4-0.5-0.6-0.8-0.9c-0.3-0.2-0.9-0.5-1.7-0.8c-0.8-0.4-1.3-0.7-1.6-1c-0.3-0.3-0.5-0.6-0.5-1c0-0.3,0.1-0.6,0.4-0.9
		c0.2-0.3,0.6-0.4,1.2-0.4c0.5,0,1,0.2,1.4,0.6c0.4,0.4,0.7,0.9,0.9,1.6h0.3v-2.3h-0.3c0,0.3-0.1,0.5-0.3,0.8
		c-0.3-0.4-0.7-0.6-1-0.8c-0.3-0.1-0.7-0.2-1.1-0.2c-0.7,0-1.2,0.2-1.7,0.6c-0.4,0.4-0.7,0.9-0.7,1.6c0,0.4,0.1,0.8,0.3,1.2
		c0.2,0.4,0.5,0.7,0.8,0.9c0.4,0.2,0.9,0.5,1.6,0.8c0.8,0.3,1.3,0.7,1.6,0.9c0.3,0.3,0.4,0.7,0.4,1.1c0,0.4-0.2,0.8-0.5,1.2
		c-0.3,0.4-0.8,0.5-1.4,0.5c-1.4,0-2.2-0.9-2.6-2.8h-0.3v2.8H240.4z M235.4,263.3c-0.3,0.4-0.6,0.6-0.9,0.7
		c-0.3,0.1-0.7,0.2-1.1,0.2h-0.7c-0.6,0-0.9-0.1-1.1-0.3c-0.1-0.2-0.2-0.8-0.2-1.8v-2.1h1c0.4,0,0.6,0,0.8,0.1
		c0.2,0,0.3,0.2,0.4,0.3c0.1,0.2,0.1,0.5,0.1,1h0.3v-3h-0.3c0,0.4,0,0.7-0.1,0.9s-0.2,0.3-0.3,0.3c-0.2,0.1-0.5,0.1-0.9,0.1h-0.9
		v-3.7h1.2c0.6,0,1.1,0,1.3,0.1c0.3,0.1,0.5,0.2,0.7,0.5c0.2,0.3,0.4,0.7,0.5,1.3h0.3l-0.2-2.2h-6.3v0.3c0.4,0,0.7,0,0.8,0.1
		c0.1,0.1,0.2,0.2,0.3,0.4c0,0.2,0.1,0.7,0.1,1.3v4.3c0,0.7,0,1.2-0.1,1.4c0,0.2-0.1,0.3-0.2,0.4c-0.1,0.1-0.4,0.2-0.8,0.2h-0.2v0.3
		h7.3l0.2-2.7h-0.3C235.9,262.5,235.7,263,235.4,263.3 M219.6,256c0.2,0,0.4,0,0.6,0c1,0,1.7,0.2,2,0.6c0.3,0.4,0.5,0.9,0.5,1.5
		c0,0.4,0,0.7-0.1,0.9s-0.2,0.4-0.4,0.6s-0.4,0.3-0.6,0.3c-0.3,0.1-0.6,0.1-0.9,0.1c-0.3,0-0.7,0-1,0V256z M226.2,264.3
		c-0.5,0-1-0.2-1.3-0.4c-0.4-0.3-0.9-0.9-1.6-1.8c-0.8-1.1-1.4-1.7-1.8-1.9c0.8-0.1,1.4-0.4,1.9-0.8c0.4-0.4,0.6-0.9,0.6-1.5
		c0-0.5-0.2-0.9-0.5-1.3c-0.3-0.4-0.7-0.6-1.3-0.8c-0.5-0.2-1.2-0.2-2-0.2c-0.5,0-1.2,0-2,0.1l-1.3,0.1v0.3h0.1c0.4,0,0.7,0,0.9,0.1
		s0.2,0.2,0.3,0.4c0,0.2,0.1,0.7,0.1,1.4v4.3c0,0.7,0,1.2-0.1,1.4s-0.1,0.4-0.3,0.4c-0.1,0.1-0.4,0.1-0.8,0.1h-0.3v0.3h4.2v-0.3
		h-0.4c-0.4,0-0.7-0.1-0.8-0.2c-0.1-0.1-0.2-0.3-0.3-0.5c0-0.2,0-0.7,0-1.4v-2h0.4c0.2,0,0.4,0,0.5,0.1c0.1,0.1,0.3,0.3,0.6,0.7
		c0.3,0.4,0.6,0.7,0.9,1.1c0.9,1.2,1.5,2,1.9,2.3h2.4V264.3z M212.8,262.8c-0.3,0.5-0.7,0.9-1.2,1.2c-0.5,0.2-1,0.3-1.4,0.3
		c-0.9,0-1.6-0.4-2.2-1.1c-0.6-0.7-0.9-1.7-0.9-3c0-1.4,0.3-2.5,0.8-3.2c0.5-0.7,1.3-1.1,2.2-1.1c0.8,0,1.4,0.2,2,0.7
		c0.6,0.5,1,1.3,1.2,2.5h0.3l-0.1-3.3h-0.3c0,0.4-0.2,0.8-0.3,1.1c-0.3-0.3-0.7-0.6-1.2-0.9s-1.1-0.4-1.8-0.4
		c-0.8,0-1.5,0.2-2.2,0.6s-1.2,0.9-1.6,1.7c-0.4,0.8-0.6,1.6-0.6,2.5c0,1.3,0.4,2.4,1.2,3.2c0.8,0.8,1.8,1.2,3.1,1.2
		c1.2,0,2.2-0.4,3-1.3c0.2,0.3,0.3,0.6,0.4,0.9h0.3v-3.1h-0.3C213.3,261.8,213.1,262.3,212.8,262.8"/>
	<path clip-path="url(#SVGID_4_)" fill="#FFFFFF" d="M323.9,239.4c0,0.9-0.3,1.6-1,2.2c-0.7,0.6-1.6,0.9-2.6,0.9
		c-2.4,0-4.5-1.1-6.3-3.4v4.2c1.9,1.4,4,2.1,6.3,2.1c2,0,3.6-0.6,4.9-1.8c1.3-1.2,1.9-2.7,1.9-4.6c0-2.6-1.4-4.8-4.3-6.5l-2.5-1.5
		c-1.1-0.7-2-1.3-2.5-1.9c-0.5-0.6-0.8-1.3-0.8-2c0-0.8,0.4-1.4,1.1-1.9c0.7-0.5,1.6-0.8,2.7-0.8c1.9,0,3.7,0.8,5.4,2.4v-3.8
		c-1.6-1.1-3.4-1.6-5.4-1.6c-2,0-3.7,0.6-5,1.7c-1.3,1.1-1.9,2.6-1.9,4.5c0,1.2,0.3,2.3,1,3.2c0.7,0.9,1.8,1.9,3.4,2.9l2.5,1.5
		C322.8,236.7,323.9,238,323.9,239.4 M306.7,228c0.7-0.9,1.1-2,1.1-3.3c0-0.9-0.2-1.7-0.7-2.3c-0.4-0.6-1-0.9-1.7-0.9
		c-0.6,0-1,0.2-1.4,0.7c-0.4,0.4-0.6,1-0.6,1.6c0,1.1,0.6,1.8,1.8,2.2c0,0.8-0.1,1.5-0.4,2c-0.2,0.5-0.5,1-1.1,1.5v0.7
		C305,229.6,306,229,306.7,228 M290.5,225.1c0.7,0.2,1.3,0.7,1.6,1.3c0.4,0.6,0.6,1.3,0.6,2c0,0.7-0.2,1.4-0.5,2
		c-0.4,0.6-0.8,1-1.5,1.3c-0.6,0.3-1.8,0.4-3.5,0.4H286v-7.4h1C288.6,224.7,289.8,224.8,290.5,225.1 M286,245.2V235h0.9
		c1.1,0,1.9,0.1,2.3,0.4s1,0.7,1.6,1.2s1.2,1.3,1.9,2.3l1.1,1.8l1,1.7l0.6,0.9c0.1,0.1,0.2,0.2,0.2,0.3l1,1.5h4l-1.2-1.7
		c-0.5-0.7-1.1-1.7-2-3c-1.3-2.1-2.3-3.6-3-4.4c-0.7-0.8-1.4-1.5-2.2-2c1.3-0.5,2.2-1.2,2.9-2.2c0.7-1,1-2.2,1-3.5
		c0-2-0.7-3.6-2.1-4.7c-1.4-1.2-3.3-1.8-5.6-1.8h-5.8v23.3H286z M262.3,245.1h13.5v-3h-10.2v-7.2h9.5v-3h-9.5v-7.1h9.9v-3h-13.2
		V245.1z M242.7,245.2h13.8v-3H246v-20.3h-3.3V245.2z M217.4,224.8h8v20.4h3.4v-20.4h8.1v-3h-19.5V224.8z M208.4,235.1
		c0,1.8-0.1,3.1-0.4,3.9c-0.3,0.8-0.8,1.4-1.4,2c-1.2,1-2.9,1.5-4.8,1.5c-1.4,0-2.6-0.3-3.6-0.8c-1-0.5-1.8-1.2-2.3-2.1
		c-0.5-0.9-0.8-2.4-0.8-4.6v-13.2h-3.4v13.2c0,1.9,0.1,3.3,0.4,4.1s0.6,1.6,1,2.2c0.4,0.6,0.9,1.2,1.4,1.6c1.8,1.6,4.3,2.4,7.3,2.4
		c3,0,5.4-0.8,7.2-2.4c0.6-0.5,1-1,1.4-1.6c0.4-0.6,0.7-1.4,1-2.3c0.3-0.9,0.4-2.3,0.4-4.1v-13.2h-3.4V235.1z M179.8,235.2
		c0.8,0.3,1.4,0.7,1.8,1.3c0.4,0.6,0.6,1.2,0.6,2c0,0.7-0.2,1.3-0.6,1.9c-0.4,0.6-0.9,1-1.6,1.3c-0.6,0.3-1.9,0.4-3.7,0.4H173v-7.4
		h3.1C177.8,234.8,179,234.9,179.8,235.2 M180.1,228.2c0,1.1-0.4,2-1.1,2.6c-0.8,0.7-2,1-3.8,1H173v-7h2.9
		C178.7,224.8,180.1,226,180.1,228.2 M182,244.3c1.2-0.6,2.1-1.3,2.7-2.3c0.6-0.9,0.9-2,0.9-3.2c0-1.5-0.5-2.8-1.5-3.9
		c-1-1.1-2.4-1.8-4.1-2.1c2.4-1,3.6-2.6,3.6-4.9c0-1.2-0.3-2.2-0.9-3.1s-1.4-1.6-2.5-2.1c-1.1-0.5-2.6-0.8-4.5-0.8h-6.1v23.3h7.9
		C179.3,245.2,180.8,244.9,182,244.3"/>
	<path clip-path="url(#SVGID_4_)" fill="#FFFFFF" d="M272,196.7c-0.7,1.7-1.7,3.3-3,4.6l-4.7-4.7c1.4-1.6,2.3-3.7,2.3-6.1
		c0-2-0.7-3.9-1.9-5.5l2.5-2.5h9.4l-4,4l0.1,0.3c0.3,1.2,0.5,2.5,0.5,3.8C273.3,192.7,272.9,194.7,272,196.7 M263.6,205.1
		c-2,0.8-4,1.2-6.2,1.2c-1.3,0-2.6-0.2-3.8-0.5l-0.3-0.1l-4,4v-9.4l2.1-2.1l0.4-0.4c1.6,1.2,3.5,1.9,5.5,1.9c2.3,0,4.5-0.9,6.1-2.3
		l4.7,4.7C266.9,203.4,265.3,204.4,263.6,205.1 M244,205.9c-1.2,0.3-2.5,0.5-3.8,0.5c-2.1,0-4.2-0.4-6.2-1.2c-1.7-0.7-3.3-1.7-4.6-3
		l4.7-4.7c1.6,1.4,3.7,2.3,6.1,2.3c2,0,3.9-0.7,5.5-1.9l0.4,0.4l2.1,2.1v9.4l-4-4L244,205.9z M224.4,190.5c0-1.3,0.2-2.6,0.5-3.8
		l0.1-0.3l-4-4h9.4l2.5,2.5c-1.2,1.6-1.9,3.5-1.9,5.5c0,2.3,0.9,4.5,2.3,6.1l-4.7,4.7c-1.3-1.4-2.3-2.9-3-4.6
		C224.8,194.7,224.4,192.7,224.4,190.5 M224.9,177.1c-0.3-1.2-0.5-2.5-0.5-3.8c0-2.1,0.4-4.2,1.2-6.2c0.7-1.7,1.7-3.3,3-4.6l4.7,4.7
		c-1.5,1.7-2.3,3.8-2.3,6.1c0,2,0.7,3.9,1.9,5.5l-2.5,2.5H221l4-4L224.9,177.1z M234.1,158.7c2-0.8,4-1.2,6.2-1.2
		c1.3,0,2.6,0.2,3.8,0.5l0.3,0.1l4-4v9.4l-2.5,2.5c-1.6-1.2-3.5-1.9-5.5-1.9c-2.3,0-4.4,0.8-6.1,2.3l-4.7-4.7
		C230.8,160.5,232.4,159.5,234.1,158.7 M253.7,157.9c1.2-0.3,2.5-0.5,3.8-0.5c2.1,0,4.2,0.4,6.2,1.2c1.7,0.7,3.3,1.7,4.6,3l-4.7,4.7
		c-1.6-1.4-3.7-2.3-6.1-2.3c-2,0-3.9,0.7-5.5,1.9l-0.1-0.1l-2.4-2.4V154l4,4L253.7,157.9z M251.3,166.9l-2.4,12.2l-2.4-12.2l2.4-2.4
		l2.2,2.2L251.3,166.9z M263.9,184.4l-12.2-2.4l12.2-2.4l2.4,2.4L263.9,184.4z M249.6,182.6l13.4,2.7L252.2,196L249.6,182.6z
		 M248.9,184.7l2.4,12.2l-2.4,2.4l-2.4-2.4L248.9,184.7z M248.1,182.6l-2.7,13.4l-10.7-10.7L248.1,182.6z M234.8,178.5l10.7-10.7
		l2.7,13.4L234.8,178.5z M231.4,181.9l2.4-2.4l12.2,2.4l-12.2,2.4l-1.1-1.1L231.4,181.9z M252.2,167.9l10.7,10.7l-13.4,2.7
		L252.2,167.9z M265.5,173.3c0,1.7-0.5,3.4-1.5,4.7l-11.3-11.3c1.4-1,3-1.5,4.7-1.5C261.9,165.2,265.5,168.9,265.5,173.3
		 M234.5,167.6c1.5-1.5,3.5-2.4,5.7-2.4c1.7,0,3.4,0.5,4.7,1.5l-11.3,11.3c-1-1.4-1.5-3-1.5-4.7C232.2,171.2,233,169.1,234.5,167.6
		 M232.2,190.5c0-1.7,0.5-3.4,1.5-4.7l11.3,11.3c-1.4,1-3,1.5-4.7,1.5C235.8,198.6,232.2,195,232.2,190.5 M257.5,198.6
		c-1.7,0-3.4-0.5-4.7-1.5l11.3-11.3c1,1.4,1.5,3,1.5,4.7C265.5,195,261.9,198.6,257.5,198.6 M273.3,173.3c0,1.3-0.2,2.6-0.5,3.8
		l-0.1,0.3l4,4h-9.4l-2.5-2.5c1.2-1.6,1.9-3.5,1.9-5.5c0-2.3-0.9-4.5-2.3-6.1l4.7-4.7c1.3,1.4,2.3,2.9,3,4.6
		C272.9,169.1,273.3,171.2,273.3,173.3 M278.8,181.9l-4.9-4.9c0.3-1.2,0.4-2.5,0.4-3.8c0-2.3-0.4-4.5-1.3-6.6
		c-0.9-2-2.1-3.8-3.6-5.4c-1.6-1.6-3.4-2.8-5.4-3.6c-2.1-0.9-4.3-1.3-6.6-1.3c-1.3,0-2.5,0.1-3.8,0.4l-4.9-4.9l-4.9,4.9
		c-1.2-0.3-2.5-0.4-3.8-0.4c-2.3,0-4.5,0.4-6.6,1.3c-2,0.9-3.8,2.1-5.4,3.6c-1.6,1.6-2.8,3.4-3.6,5.4c-0.9,2.1-1.3,4.3-1.3,6.6
		c0,1.3,0.1,2.5,0.4,3.8l-4.9,4.9l4.9,4.9c-0.3,1.2-0.4,2.5-0.4,3.8c0,2.3,0.4,4.5,1.3,6.6c0.9,2,2.1,3.8,3.6,5.4
		c1.6,1.6,3.4,2.8,5.4,3.6c2.1,0.9,4.3,1.3,6.6,1.3c1.3,0,2.5-0.1,3.8-0.4l4.9,4.9l4.9-4.9c1.2,0.3,2.5,0.4,3.8,0.4
		c2.3,0,4.5-0.4,6.6-1.3c2-0.9,3.8-2.1,5.4-3.6c1.6-1.6,2.8-3.4,3.6-5.4c0.9-2.1,1.3-4.3,1.3-6.6c0-1.3-0.1-2.5-0.4-3.8L278.8,181.9
		z"/>
</g>
</svg>
