<?xml version="1.0" encoding="utf-8"?>
<!-- Generator: Adobe Illustrator 19.1.1, SVG Export Plug-In . SVG Version: 6.00 Build 0)  -->
<svg version="1.1" id="Layer_1" xmlns="http://www.w3.org/2000/svg" xmlns:xlink="http://www.w3.org/1999/xlink" x="0px" y="0px"
	 viewBox="0 0 960 560" style="enable-background:new 0 0 960 560;" xml:space="preserve">
<style type="text/css">
	.st0{clip-path:url(#SVGID_2_);fill:#85B09A;}
</style>
<g>
	<defs>
		<rect id="SVGID_1_" x="-274.9" y="-674.2" width="1937.3" height="1937.3"/>
	</defs>
	<clipPath id="SVGID_2_">
		<use xlink:href="#SVGID_1_"  style="overflow:visible;"/>
	</clipPath>
	<path class="st0" d="M1587.1,96.5c23.3,57.4,36,117.7,38.1,179.6l-221.9,0c-4.3-71.8-33.8-142.4-88.6-197.2
		C1267.7,31.8,1206.5,1.5,1141-7.6l0-119.2l221.6-221.6v186.7l8.9,5.4c36.2,21.9,69.9,48.3,100,78.5
		C1521.6-27.7,1560.6,31,1587.1,96.5 M1587.1,492.5c-26.6,65.5-65.5,124.1-115.7,174.3c-30.2,30.2-63.9,56.6-100.1,78.5l-8.9,5.4
		l0,186.7L1141,715.8l0-100.8l0-18.3c65.6-9.1,126.8-39.4,173.8-86.5c54.8-54.8,84.3-125.5,88.6-197.4l221.9,0
		C1623.1,374.6,1610.4,435,1587.1,492.5 M1144.5,972.2c-21.9,36.2-48.3,69.9-78.5,100.1c-50.2,50.2-108.8,89.1-174.3,115.7
		c-57.4,23.3-117.8,36-179.7,38.1l0-221.9c71.9-4.3,142.5-33.8,197.3-88.6c47.1-47.1,77.4-108.2,86.5-173.8l18.3,0l100.8,0
		l221.6,221.6l-186.7,0L1144.5,972.2z M321.4,1072.2c-30.2-30.2-56.6-63.9-78.5-100l-5.4-8.9H50.9l221.6-221.6l119.2,0
		c9.1,65.6,39.4,126.8,86.5,173.8c54.8,54.8,125.4,84.3,197.3,88.6V1226c-61.9-2.1-122.2-14.8-179.7-38.1
		C430.2,1161.3,371.6,1122.4,321.4,1072.2 M16.1,745.3c-36.2-21.9-69.9-48.3-100-78.5c-50.2-50.2-89.1-108.8-115.7-174.3
		c-23.3-57.5-36-117.9-38.1-179.8H-16c4.4,74.6,35.5,144.1,88.7,197.4c47.1,47.1,108.2,77.4,173.8,86.5l0,119.2L24.9,937.4l0-186.7
		L16.1,745.3z M-199.6,96.5C-173.1,31-134.2-27.7-84-77.8c30.2-30.2,63.9-56.6,100.1-78.5l8.9-5.4v-186.7l221.6,221.6V-7.6
		C180.9,1.5,119.8,31.8,72.7,78.8l0,0C19.5,132.1-11.6,201.5-16,276l-221.8,0C-235.6,214.2-222.9,153.9-199.6,96.5 M242.9-383.2
		c21.9-36.2,48.3-69.9,78.5-100c50.2-50.2,108.8-89.1,174.3-115.7c57.4-23.3,117.8-36,179.7-38.1l0,221.9
		c-71.9,4.3-142.5,33.8-197.3,88.6c-47.1,47.1-77.4,108.3-86.5,173.8h-5.7l0,0l-113.5,0L50.9-374.3h186.7L242.9-383.2z M398.2-116
		l229.5,344.5L283.2-1l0-115h102.7H398.2z M1104.3-1L759.8,228.5L989.2-116h115V-1z M726.8,294.5l377.4-251.4l0,502.8L726.8,294.5z
		 M759.8,360.5L1104.3,590l0,115l-115,0L759.8,360.5z M693.7,327.6L945.1,705l-502.8,0L693.7,327.6z M283.2,545.9l0-502.8
		l377.4,251.4L283.2,545.9z M283.2,705V590l344.5-229.5L398.2,705l-50.9,0L283.2,705z M442.3-116h502.8L693.7,261.4L442.3-116z
		 M883.4-300.6c40.2,40.2,66.4,92.1,75.2,147.9H428.8c8.8-55.8,35.1-107.7,75.2-147.9C608.6-405.2,778.8-405.2,883.4-300.6
		 M20.1,294.5c0-71.7,27.9-139,78.6-189.7c40.2-40.2,92.1-66.4,147.9-75.2l0,529.9c-55.8-8.8-107.7-35.1-147.9-75.2
		C48,433.5,20.1,366.2,20.1,294.5 M504,889.6c-40.2-40.2-66.4-92.1-75.2-147.9l529.9,0c-8.8,55.8-35.1,107.7-75.2,147.9
		C778.8,994.2,608.6,994.2,504,889.6 M1288.8,484.2c-40.2,40.2-92.1,66.4-147.9,75.2l0-529.9c55.8,8.8,107.7,35.1,147.9,75.2
		C1393.4,209.4,1393.4,379.6,1288.8,484.2 M1066.1-483.2c30.2,30.2,56.6,63.8,78.5,100.1l5.4,8.9h186.7L1115-152.7H995.9
		c-9.1-65.6-39.4-126.8-86.5-173.8c-54.8-54.8-125.4-84.3-197.3-88.6l0-221.9c61.9,2.1,122.2,14.8,179.7,38.1
		C957.2-572.3,1015.9-533.4,1066.1-483.2 M1399.3-411h-228.8c-22.3-35.4-48.7-68.4-78.5-98.2c-53.7-53.7-116.4-95.3-186.5-123.7
		c-67.5-27.4-138.8-41.3-211.8-41.3c-73,0-144.3,13.9-211.8,41.3c-70.1,28.4-132.8,70-186.5,123.7c-29.8,29.8-56.1,62.8-78.4,98.1
		H-11.8l0,228.8c-35.4,22.3-68.4,48.6-98.2,78.5c-53.7,53.7-95.3,116.4-123.7,186.5c-27.4,67.5-41.3,138.8-41.3,211.8
		c0,73,13.9,144.3,41.3,211.8c28.4,70,70,132.8,123.7,186.5c29.8,29.8,62.8,56.2,98.2,78.5V1000l228.8,0
		c22.3,35.4,48.6,68.4,78.5,98.2c53.7,53.7,116.4,95.3,186.5,123.7c67.5,27.4,138.8,41.3,211.8,41.3c73,0,144.3-13.9,211.8-41.3
		c70.1-28.4,132.8-70,186.5-123.7c29.8-29.8,56.2-62.8,78.5-98.2l228.8,0l0-228.8c35.4-22.3,68.4-48.6,98.2-78.4
		c53.7-53.7,95.3-116.4,123.7-186.5c27.4-67.5,41.3-138.8,41.3-211.8c0-73-13.9-144.3-41.3-211.8c-28.4-70.1-70-132.8-123.7-186.5
		c-29.8-29.8-62.8-56.2-98.2-78.5V-411z"/>
</g>
</svg>
