<?xml version="1.0" encoding="utf-8"?>
<!-- Generator: Adobe Illustrator 19.1.1, SVG Export Plug-In . SVG Version: 6.00 Build 0)  -->
<svg version="1.1" id="Layer_1" xmlns="http://www.w3.org/2000/svg" xmlns:xlink="http://www.w3.org/1999/xlink" x="0px" y="0px"
	 viewBox="0 0 157.3 112.8" style="enable-background:new 0 0 157.3 112.8;" xml:space="preserve">
<style type="text/css">
	.st0{clip-path:url(#SVGID_2_);fill:#FFFFFF;}
</style>
<g>
	<defs>
		<rect id="SVGID_1_" x="0" y="0" width="157.3" height="112.8"/>
	</defs>
	<clipPath id="SVGID_2_">
		<use xlink:href="#SVGID_1_"  style="overflow:visible;"/>
	</clipPath>
	<path class="st0" d="M113.5,104.7c0.2-0.3,0.4-0.4,0.5-0.5c0.2-0.1,0.6-0.1,1.1-0.1h1.3v6.2c0,0.7,0,1.2-0.1,1.4
		c0,0.2-0.1,0.3-0.3,0.4c-0.1,0.1-0.4,0.1-0.8,0.1h-0.5v0.3h4.4v-0.3h-0.4c-0.4,0-0.7-0.1-0.8-0.2c-0.1-0.1-0.2-0.3-0.3-0.5
		c0-0.2,0-0.7,0-1.4v-6.2h1.4c0.5,0,0.8,0,1,0.1s0.4,0.2,0.6,0.5c0.2,0.3,0.3,0.7,0.4,1.3h0.3l0-2.1h-8.5l0,2.1h0.3
		C113.2,105.4,113.3,105,113.5,104.7 M108.7,112.8v-7.3c0-0.4,0-0.6,0.1-0.8c0.1-0.2,0.2-0.3,0.4-0.4c0.2-0.1,0.5-0.2,0.9-0.2v-0.3
		h-3.2v0.3c0.3,0,0.6,0,0.9,0.1c0.2,0.1,0.4,0.2,0.5,0.4c0.1,0.2,0.1,0.4,0.1,0.8v5.3l-5.2-6.9h-2.6v0.3c0.5,0,0.8,0,0.9,0.1
		c0.1,0.1,0.2,0.2,0.3,0.4c0.1,0.2,0.1,0.7,0.1,1.4v4.7c0,0.5,0,0.9-0.1,1c0,0.1-0.2,0.3-0.4,0.4c-0.2,0.1-0.5,0.2-1,0.2v0.3h3.3
		v-0.3c-0.5,0-0.8-0.1-1.1-0.2c-0.2-0.1-0.4-0.3-0.4-0.4c-0.1-0.2-0.1-0.5-0.1-1v-6.1l6.2,8.2H108.7z M96.8,111.4
		c-0.3,0.4-0.6,0.6-0.9,0.7c-0.3,0.1-0.7,0.2-1.1,0.2h-0.7c-0.6,0-0.9-0.1-1.1-0.3c-0.1-0.2-0.2-0.8-0.2-1.8v-2.1h1
		c0.4,0,0.6,0,0.8,0.1c0.2,0.1,0.3,0.2,0.4,0.3c0.1,0.2,0.1,0.5,0.1,1h0.3v-3h-0.3c0,0.4,0,0.7-0.1,0.9c-0.1,0.1-0.2,0.3-0.3,0.3
		c-0.2,0.1-0.5,0.1-0.9,0.1h-0.9v-3.7h1.2c0.6,0,1.1,0,1.3,0.1c0.3,0.1,0.5,0.2,0.7,0.5c0.2,0.3,0.4,0.7,0.5,1.3H97l-0.2-2.2h-6.3
		v0.3c0.4,0,0.7,0,0.8,0.1c0.1,0.1,0.2,0.2,0.3,0.4s0.1,0.7,0.1,1.3v4.3c0,0.7,0,1.2-0.1,1.4c0,0.2-0.1,0.3-0.2,0.4
		c-0.1,0.1-0.4,0.2-0.8,0.2h-0.2v0.3h7.3l0.2-2.7h-0.3C97.3,110.5,97.1,111,96.8,111.4 M86.2,110.9c-0.3,0.5-0.7,0.9-1.2,1.2
		c-0.5,0.2-1,0.3-1.4,0.3c-0.9,0-1.6-0.4-2.2-1.1c-0.6-0.7-0.9-1.7-0.9-3c0-1.4,0.3-2.5,0.8-3.2s1.3-1.1,2.2-1.1
		c0.8,0,1.4,0.2,2,0.7c0.6,0.5,1,1.3,1.2,2.5H87l-0.1-3.3h-0.3c0,0.4-0.2,0.8-0.3,1.1c-0.3-0.3-0.7-0.6-1.2-0.9
		c-0.5-0.3-1.1-0.4-1.8-0.4c-0.8,0-1.5,0.2-2.2,0.6s-1.2,0.9-1.6,1.7c-0.4,0.8-0.6,1.6-0.6,2.5c0,1.3,0.4,2.4,1.2,3.2
		c0.8,0.8,1.8,1.2,3.1,1.2c1.2,0,2.2-0.4,3-1.3c0.2,0.3,0.3,0.6,0.4,0.9H87v-3.1h-0.3C86.6,109.8,86.5,110.4,86.2,110.9 M70.7,112.5
		c0.1-0.4,0.2-0.7,0.3-0.9c0.6,0.7,1.4,1.1,2.4,1.1c0.8,0,1.5-0.2,2-0.7c0.5-0.5,0.8-1.1,0.8-1.8c0-0.5-0.1-0.9-0.3-1.3
		c-0.2-0.4-0.5-0.6-0.8-0.9c-0.3-0.2-0.9-0.5-1.7-0.8c-0.8-0.4-1.3-0.7-1.6-1c-0.3-0.3-0.5-0.6-0.5-1c0-0.3,0.1-0.6,0.4-0.9
		c0.2-0.3,0.6-0.4,1.2-0.4c0.5,0,1,0.2,1.4,0.6c0.4,0.4,0.7,0.9,0.9,1.6h0.3v-2.3h-0.3c0,0.3-0.1,0.5-0.3,0.8
		c-0.3-0.4-0.7-0.6-1-0.8c-0.3-0.1-0.7-0.2-1.1-0.2c-0.7,0-1.2,0.2-1.7,0.6c-0.4,0.4-0.7,0.9-0.7,1.6c0,0.4,0.1,0.8,0.3,1.2
		c0.2,0.4,0.5,0.7,0.8,0.9c0.4,0.2,0.9,0.5,1.6,0.8c0.8,0.3,1.3,0.7,1.6,0.9c0.3,0.3,0.4,0.7,0.4,1.1c0,0.4-0.2,0.8-0.5,1.2
		c-0.3,0.4-0.8,0.5-1.4,0.5c-1.4,0-2.2-0.9-2.6-2.8h-0.3v2.8H70.7z M65.8,111.4c-0.3,0.4-0.6,0.6-0.9,0.7c-0.3,0.1-0.7,0.2-1.1,0.2
		h-0.7c-0.6,0-0.9-0.1-1.1-0.3c-0.1-0.2-0.2-0.8-0.2-1.8v-2.1h1c0.4,0,0.6,0,0.8,0.1c0.2,0.1,0.3,0.2,0.4,0.3c0.1,0.2,0.1,0.5,0.1,1
		h0.3v-3h-0.3c0,0.4,0,0.7-0.1,0.9c-0.1,0.1-0.2,0.3-0.3,0.3c-0.2,0.1-0.5,0.1-0.9,0.1h-0.9v-3.7h1.2c0.6,0,1.1,0,1.3,0.1
		c0.3,0.1,0.5,0.2,0.7,0.5c0.2,0.3,0.4,0.7,0.5,1.3h0.3l-0.2-2.2h-6.3v0.3c0.4,0,0.7,0,0.8,0.1c0.1,0.1,0.2,0.2,0.3,0.4
		c0,0.2,0.1,0.7,0.1,1.3v4.3c0,0.7,0,1.2-0.1,1.4c0,0.2-0.1,0.3-0.2,0.4c-0.1,0.1-0.4,0.2-0.8,0.2h-0.2v0.3h7.3l0.2-2.7h-0.3
		C66.3,110.5,66,111,65.8,111.4 M49.9,104.1c0.2,0,0.4,0,0.6,0c1,0,1.7,0.2,2,0.6c0.3,0.4,0.5,0.9,0.5,1.5c0,0.4,0,0.7-0.1,0.9
		c-0.1,0.2-0.2,0.4-0.4,0.6c-0.2,0.1-0.4,0.3-0.6,0.3c-0.3,0.1-0.6,0.1-0.9,0.1c-0.3,0-0.7,0-1,0V104.1z M56.6,112.3
		c-0.5,0-1-0.2-1.3-0.4c-0.4-0.3-0.9-0.9-1.6-1.8c-0.8-1.1-1.4-1.7-1.8-1.9c0.8-0.1,1.4-0.4,1.9-0.8c0.4-0.4,0.6-0.9,0.6-1.5
		c0-0.5-0.2-0.9-0.5-1.3c-0.3-0.4-0.7-0.6-1.3-0.8c-0.5-0.2-1.2-0.2-2-0.2c-0.5,0-1.2,0-2,0.1l-1.3,0.1v0.3h0.1c0.4,0,0.7,0,0.9,0.1
		c0.1,0.1,0.2,0.2,0.3,0.4c0,0.2,0.1,0.7,0.1,1.4v4.3c0,0.7,0,1.2-0.1,1.4c0,0.2-0.1,0.3-0.3,0.4s-0.4,0.1-0.8,0.1h-0.3v0.3h4.2
		v-0.3H51c-0.4,0-0.7-0.1-0.8-0.2c-0.1-0.1-0.2-0.3-0.3-0.5c0-0.2,0-0.7,0-1.4v-2h0.4c0.2,0,0.4,0,0.5,0.1c0.1,0.1,0.3,0.3,0.6,0.7
		c0.3,0.4,0.6,0.7,0.9,1.1c0.9,1.2,1.5,2,1.9,2.3h2.4V112.3z M43.1,110.9c-0.3,0.5-0.7,0.9-1.2,1.2c-0.5,0.2-1,0.3-1.4,0.3
		c-0.9,0-1.6-0.4-2.2-1.1c-0.6-0.7-0.9-1.7-0.9-3c0-1.4,0.3-2.5,0.8-3.2c0.5-0.7,1.3-1.1,2.2-1.1c0.8,0,1.4,0.2,2,0.7
		c0.6,0.5,1,1.3,1.2,2.5h0.3l-0.1-3.3h-0.3c0,0.4-0.2,0.8-0.3,1.1c-0.3-0.3-0.7-0.6-1.2-0.9c-0.5-0.3-1.1-0.4-1.8-0.4
		c-0.8,0-1.5,0.2-2.2,0.6s-1.2,0.9-1.6,1.7c-0.4,0.8-0.6,1.6-0.6,2.5c0,1.3,0.4,2.4,1.2,3.2c0.8,0.8,1.8,1.2,3.1,1.2
		c1.2,0,2.2-0.4,3-1.3c0.2,0.3,0.3,0.6,0.4,0.9h0.3v-3.1h-0.3C43.6,109.8,43.4,110.4,43.1,110.9"/>
	<path class="st0" d="M154.2,87.5c0,0.9-0.3,1.6-1,2.2c-0.7,0.6-1.6,0.9-2.6,0.9c-2.4,0-4.5-1.1-6.3-3.4v4.2c1.9,1.4,4,2.1,6.3,2.1
		c2,0,3.6-0.6,4.9-1.8c1.3-1.2,1.9-2.7,1.9-4.6c0-2.6-1.4-4.8-4.3-6.5l-2.5-1.5c-1.1-0.7-2-1.3-2.5-1.9s-0.8-1.3-0.8-2
		c0-0.8,0.4-1.4,1.1-1.9c0.7-0.5,1.6-0.8,2.7-0.8c1.9,0,3.7,0.8,5.4,2.4v-3.8c-1.6-1.1-3.4-1.6-5.4-1.6c-2,0-3.7,0.6-5,1.7
		c-1.3,1.1-1.9,2.6-1.9,4.5c0,1.2,0.3,2.3,1,3.2c0.7,0.9,1.8,1.9,3.4,2.9l2.5,1.5C153.2,84.7,154.2,86.1,154.2,87.5 M137,76.1
		c0.7-0.9,1.1-2,1.1-3.3c0-0.9-0.2-1.7-0.7-2.3c-0.4-0.6-1-0.9-1.7-0.9c-0.6,0-1,0.2-1.4,0.7c-0.4,0.4-0.6,1-0.6,1.6
		c0,1.1,0.6,1.8,1.8,2.2c0,0.8-0.1,1.5-0.3,2c-0.2,0.5-0.6,1-1.1,1.4v0.7C135.3,77.7,136.3,77.1,137,76.1 M120.8,73.1
		c0.7,0.2,1.3,0.7,1.6,1.3c0.4,0.6,0.6,1.3,0.6,2c0,0.7-0.2,1.4-0.5,2c-0.3,0.6-0.8,1-1.5,1.3c-0.6,0.3-1.8,0.4-3.5,0.4h-1.3v-7.4h1
		C118.9,72.8,120.1,72.9,120.8,73.1 M116.3,93.2V83.1h0.9c1.1,0,1.9,0.1,2.3,0.4c0.5,0.2,1,0.7,1.6,1.2c0.6,0.6,1.2,1.3,1.9,2.3
		l1.1,1.8l1,1.7l0.7,0.9c0.1,0.1,0.2,0.2,0.2,0.3l1,1.5h4l-1.2-1.7c-0.5-0.7-1.1-1.7-1.9-3c-1.3-2.1-2.3-3.6-3-4.4
		c-0.7-0.8-1.4-1.5-2.2-2c1.3-0.5,2.2-1.2,2.9-2.2c0.7-1,1-2.2,1-3.5c0-2-0.7-3.6-2.1-4.7c-1.4-1.2-3.3-1.8-5.6-1.8H113v23.3H116.3z
		 M92.6,93.2h13.5v-3H95.9V83h9.5v-3h-9.5v-7.1h9.9v-3H92.6V93.2z M73,93.2h13.8v-3H76.4V69.9H73V93.2z M47.7,72.9h8v20.4H59V72.9
		h8.1v-3H47.7V72.9z M38.7,83.2c0,1.8-0.1,3.1-0.4,3.9c-0.3,0.8-0.8,1.4-1.4,2c-1.2,1-2.9,1.6-4.8,1.6c-1.4,0-2.6-0.3-3.6-0.8
		c-1-0.5-1.8-1.2-2.3-2.1c-0.5-0.9-0.8-2.4-0.8-4.6V69.9H22v13.2c0,1.9,0.1,3.3,0.4,4.1s0.6,1.6,1,2.2c0.4,0.6,0.9,1.2,1.4,1.6
		c1.8,1.6,4.3,2.4,7.3,2.4c3,0,5.4-0.8,7.2-2.4c0.6-0.5,1-1,1.4-1.6c0.4-0.6,0.7-1.4,1-2.3c0.3-0.9,0.4-2.3,0.4-4.1V69.9h-3.4V83.2z
		 M10.1,83.3c0.8,0.3,1.4,0.7,1.8,1.3c0.4,0.6,0.6,1.2,0.6,2c0,0.7-0.2,1.3-0.6,1.9c-0.4,0.6-0.9,1-1.6,1.3
		c-0.6,0.3-1.9,0.4-3.7,0.4H3.3v-7.4h3.1C8.1,82.9,9.3,83,10.1,83.3 M10.5,76.3c0,1.1-0.4,2-1.1,2.6s-2,1-3.8,1H3.3v-7h2.9
		C9,72.9,10.5,74,10.5,76.3 M12.3,92.3c1.2-0.6,2.1-1.3,2.7-2.3c0.6-0.9,0.9-2,0.9-3.2c0-1.5-0.5-2.8-1.5-3.9
		c-1-1.1-2.4-1.8-4.1-2.1c2.4-1,3.6-2.6,3.6-4.9c0-1.2-0.3-2.2-0.9-3.1s-1.4-1.6-2.5-2.1c-1.1-0.5-2.6-0.8-4.5-0.8H0v23.3h7.9
		C9.7,93.2,11.1,92.9,12.3,92.3"/>
	<path class="st0" d="M102.4,44.8c-0.7,1.7-1.7,3.3-3,4.6l-4.7-4.7c1.4-1.6,2.3-3.7,2.3-6.1c0-2-0.7-3.9-1.9-5.5l2.5-2.5h9.4l-4,4
		l0.1,0.3c0.3,1.2,0.5,2.5,0.5,3.8C103.6,40.7,103.2,42.8,102.4,44.8 M94,53.2c-2,0.8-4,1.2-6.2,1.2c-1.3,0-2.6-0.2-3.8-0.5
		l-0.3-0.1l-4,4v-9.4l2.1-2.1l0.4-0.4c1.6,1.2,3.5,1.9,5.5,1.9c2.3,0,4.5-0.9,6.1-2.3l4.7,4.7C97.2,51.5,95.7,52.5,94,53.2 M74.4,54
		c-1.2,0.3-2.5,0.5-3.8,0.5c-2.1,0-4.2-0.4-6.2-1.2c-1.7-0.7-3.3-1.7-4.6-3l4.7-4.7c1.6,1.4,3.7,2.3,6.1,2.3c2,0,3.9-0.7,5.5-1.9
		l0.4,0.4l2.1,2.1v9.4l-4-4L74.4,54z M54.7,38.6c0-1.3,0.2-2.6,0.5-3.8l0.1-0.3l-4-4h9.4l2.5,2.5c-1.2,1.6-1.9,3.5-1.9,5.5
		c0,2.3,0.9,4.5,2.3,6.1L59,49.4c-1.3-1.4-2.3-2.9-3-4.6C55.2,42.8,54.7,40.7,54.7,38.6 M55.2,25.2c-0.3-1.2-0.5-2.5-0.5-3.8
		c0-2.1,0.4-4.2,1.2-6.2c0.7-1.7,1.7-3.3,3-4.6l4.7,4.7c-1.5,1.7-2.3,3.8-2.3,6.1c0,2,0.7,3.9,1.9,5.5l-2.5,2.5h-9.4l4-4L55.2,25.2z
		 M64.4,6.8c2-0.8,4-1.2,6.2-1.2c1.3,0,2.6,0.2,3.8,0.5l0.3,0.1l4-4v9.4l-2.5,2.5c-1.6-1.2-3.5-1.9-5.5-1.9c-2.3,0-4.4,0.8-6.1,2.3
		l-4.7-4.7C61.1,8.5,62.7,7.5,64.4,6.8 M84,6c1.2-0.3,2.5-0.5,3.8-0.5C89.9,5.5,92,6,94,6.8c1.7,0.7,3.3,1.7,4.6,3l-4.7,4.7
		c-1.6-1.4-3.7-2.3-6.1-2.3c-2,0-3.9,0.7-5.5,1.9l-0.1-0.1v0l-2.4-2.4V2.1l4,4L84,6z M81.6,15l-2.4,12.2L76.7,15l2.4-2.4l2.2,2.2
		L81.6,15z M94.2,32.4L82,30l12.2-2.4l2.4,2.4L94.2,32.4z M79.9,30.7l13.4,2.7L82.6,44.1L79.9,30.7z M79.2,32.8L81.6,45l-2.4,2.4
		L76.7,45L79.2,32.8z M78.5,30.7l-2.7,13.4L65.1,33.4L78.5,30.7z M65.1,26.6l10.7-10.7l2.7,13.4L65.1,26.6z M61.7,30l2.4-2.4
		L76.4,30l-12.2,2.4l-1.1-1.1L61.7,30z M82.6,15.9l10.7,10.7l-13.4,2.7L82.6,15.9z M95.9,21.4c0,1.7-0.5,3.4-1.5,4.7L83.1,14.9
		c1.4-1,3-1.5,4.7-1.5C92.2,13.3,95.9,16.9,95.9,21.4 M64.9,15.7c1.5-1.5,3.5-2.4,5.7-2.4c1.7,0,3.4,0.5,4.7,1.5L64,26.1
		c-1-1.4-1.5-3-1.5-4.7C62.5,19.2,63.3,17.2,64.9,15.7 M62.5,38.6c0-1.7,0.5-3.4,1.5-4.7l11.3,11.3c-1.4,1-3,1.5-4.7,1.5
		C66.1,46.7,62.5,43.1,62.5,38.6 M87.8,46.7c-1.7,0-3.4-0.5-4.7-1.5l11.3-11.3c1,1.4,1.5,3,1.5,4.7C95.9,43.1,92.2,46.7,87.8,46.7
		 M103.6,21.4c0,1.3-0.2,2.6-0.5,3.8l-0.1,0.3l4,4h-9.4l-2.5-2.5c1.2-1.6,1.9-3.5,1.9-5.5c0-2.3-0.9-4.5-2.3-6.1l4.7-4.7
		c1.3,1.4,2.3,2.9,3,4.6C103.2,17.2,103.6,19.2,103.6,21.4 M109.2,30l-4.9-4.9c0.3-1.2,0.4-2.5,0.4-3.8c0-2.3-0.4-4.5-1.3-6.6
		c-0.9-2-2.1-3.8-3.6-5.4c-1.6-1.6-3.4-2.8-5.4-3.6c-2.1-0.9-4.3-1.3-6.6-1.3c-1.3,0-2.5,0.1-3.8,0.4L79.2,0l-4.9,4.9
		c-1.2-0.3-2.5-0.4-3.8-0.4c-2.3,0-4.5,0.4-6.6,1.3c-2,0.9-3.8,2.1-5.4,3.6C57,11,55.8,12.8,55,14.8c-0.9,2.1-1.3,4.3-1.3,6.6
		c0,1.3,0.1,2.5,0.4,3.8L49.2,30l4.9,4.9c-0.3,1.2-0.4,2.5-0.4,3.8c0,2.3,0.4,4.5,1.3,6.6c0.9,2,2.1,3.8,3.6,5.4
		c1.6,1.6,3.4,2.8,5.4,3.6c2.1,0.9,4.3,1.3,6.6,1.3c1.3,0,2.5-0.1,3.8-0.4l4.9,4.9l4.9-4.9c1.2,0.3,2.5,0.4,3.8,0.4
		c2.3,0,4.5-0.4,6.6-1.3c2-0.9,3.8-2.1,5.4-3.6c1.6-1.6,2.8-3.4,3.6-5.4c0.9-2.1,1.3-4.3,1.3-6.6c0-1.3-0.1-2.5-0.4-3.8L109.2,30z"
		/>
</g>
</svg>
