<?xml version="1.0" encoding="utf-8"?>
<!-- Generator: Adobe Illustrator 19.1.1, SVG Export Plug-In . SVG Version: 6.00 Build 0)  -->
<svg version="1.1" xmlns:x="&ns_extend;" xmlns:i="&ns_ai;" xmlns:graph="&ns_graphs;"
	 xmlns="http://www.w3.org/2000/svg" xmlns:xlink="http://www.w3.org/1999/xlink" x="0px" y="0px" viewBox="910.2 644.3 100.3 74.8"
	 style="enable-background:new 910.2 644.3 100.3 74.8;" xml:space="preserve">
<style type="text/css">
	.st0{display:none;}
	.st1{display:inline;stroke:#000000;stroke-miterlimit:10;}
	.st2{fill:#FFFFFF;}
</style>
<metadata>
	<sfw  xmlns="&ns_sfw;">
		<slices></slices>
		<sliceSourceBounds  width="1593" height="1089" bottomLeftOrigin="true" y="-61.5" x="-66.5"></sliceSourceBounds>
		<optimizationSettings>
			<targetSettings  targetSettingsID="0" fileFormat="PNG24Format">
				<PNG24Format  transparency="true" filtered="false" interlaced="false" noMatteColor="false" matteColor="#FFFFFF">
					</PNG24Format>
			</targetSettings>
		</optimizationSettings>
	</sfw>
</metadata>
<g id="Layer_2" class="st0">
	<rect x="174" y="-266" class="st1" width="1592" height="1088"/>
</g>
<g id="Layer_1">
	<g>
		<path class="st2" d="M910.3,703.9h3.8c2.9,0,5.9,0.4,5.9,4.1c0,2.2-1.4,3.6-3.7,3.9l4.2,6.8h-2.2l-4-6.7H912v6.7h-1.8L910.3,703.9
			L910.3,703.9z M912,710.4h1.6c2,0,4.5,0,4.5-2.5c0-2.1-1.9-2.5-3.6-2.5H912V710.4z"/>
		<path class="st2" d="M931.6,717c-1.2,1.5-2.5,2-4.4,2c-3.1,0-5-2.3-5-5.2c0-3,2.1-5.2,5-5.2c2.8,0,4.7,1.9,4.7,5.1v0.5H924
			c0.1,1.7,1.4,3.1,3.2,3.1c1.4,0,2.4-0.5,3.1-1.5L931.6,717z M930.2,713c-0.1-1.7-1.2-2.8-3-2.8s-3,1.1-3.2,2.8H930.2z"/>
		<path class="st2" d="M934.4,710.2c1-1,2.5-1.5,3.9-1.5c2.9,0,4.1,1.4,4.1,4.2v4.2c0,0.6,0.1,1.2,0.1,1.7H941
			c-0.1-0.4-0.1-1-0.1-1.5l0,0c-0.7,1-1.7,1.7-3.2,1.7c-2,0-3.7-1-3.7-2.9c0-3.3,3.8-3.4,6.2-3.4h0.6v-0.3c0-1.4-0.9-2.2-2.4-2.2
			c-1,0-2.1,0.4-2.9,1.1L934.4,710.2z M939.1,714c-2.1,0-3.4,0.6-3.4,1.9c0,1.2,0.9,1.7,2.2,1.7c1.9,0,2.9-1.4,2.9-3V714H939.1z"/>
		<path class="st2" d="M953.6,717L953.6,717c-0.7,1.1-2.1,2-3.8,2c-2.8,0-4.9-2.2-4.9-5.2s2.1-5.2,5.2-5.2c1.4,0,2.6,0.6,3.5,1.7
			l0,0v-7.5h1.6v15.9h-1.6V717z M950.1,710.2c-2.1,0-3.5,1.6-3.5,3.7s1.4,3.7,3.5,3.7s3.5-1.6,3.5-3.7S952.2,710.2,950.1,710.2z"/>
		<path class="st2" d="M964.1,711.3c0-0.9-0.1-1.7-0.1-2.3h1.6c0,0.5,0,1.1,0,1.6l0,0c0.4-1,1.7-1.9,3.3-1.9c2.1,0,2.8,1.2,3.1,1.9
			c0.7-1.2,1.6-1.9,3.1-1.9c2.8,0,3.7,1.6,3.7,4.1v6h-1.6v-5.9c0-1.4-0.5-2.7-2.4-2.7c-1.4,0-2.5,1.1-2.5,2.9v5.7h-1.6v-5.6
			c0-2.2-0.5-3-1.9-3c-2.1,0-3,1.5-3,3.8v4.8h-1.6L964.1,711.3L964.1,711.3z"/>
		<path class="st2" d="M986.6,708.7c3,0,5.2,2.1,5.2,5.2s-2.2,5.2-5.2,5.2s-5.2-2.1-5.2-5.2S983.6,708.7,986.6,708.7z M986.6,717.5
			c2.1,0,3.5-1.6,3.5-3.7s-1.4-3.7-3.5-3.7s-3.5,1.6-3.5,3.7S984.5,717.5,986.6,717.5z"/>
		<path class="st2" d="M994.4,711.3c0-0.9-0.1-1.7-0.1-2.3h1.6c0,0.5,0,1.1,0,1.6l0,0c0.4-1,1.7-1.9,3.3-1.9c0.2,0,0.4,0,0.7,0.1
			l-0.1,1.7c-0.3-0.1-0.6-0.1-0.9-0.1c-2,0-2.9,1.4-2.9,3.7v4.8h-1.6V711.3z"/>
		<path class="st2" d="M1010.2,717c-1.2,1.5-2.5,2-4.4,2c-3.1,0-5-2.3-5-5.2c0-3,2.1-5.2,5-5.2c2.8,0,4.7,1.9,4.7,5.1v0.5h-7.9
			c0.1,1.7,1.4,3.1,3.2,3.1c1.4,0,2.4-0.5,3.1-1.5L1010.2,717z M1008.8,713c-0.1-1.7-1.2-2.8-3-2.8s-3,1.1-3.2,2.8H1008.8z"/>
	</g>
	<polygon class="st2" points="998.3,644.3 994.5,644.3 960,672.9 925.5,644.3 921.7,644.3 952.4,689.7 967.6,689.7 	"/>
</g>
</svg>
